<svg width="20" height="20" viewBox="0 0 20 20" fill="none" xmlns="http://www.w3.org/2000/svg">
    <g clip-path="url(#nzujtibe7a)" stroke="#fff" stroke-width="1.875">
        <path d="m8.75 7.5 2.5 2.5-2.5 2.5" stroke-linecap="round" stroke-linejoin="round"/>
        <path d="M1.666 10c0-3.928 0-5.892 1.22-7.113 1.22-1.22 3.185-1.22 7.113-1.22 3.929 0 5.893 0 7.113 1.22 1.22 1.22 1.22 3.185 1.22 7.113 0 3.928 0 5.893-1.22 7.113-1.22 1.22-3.184 1.22-7.113 1.22-3.928 0-5.892 0-7.113-1.22-1.22-1.22-1.22-3.184-1.22-7.113z"/>
    </g>
    <defs>
        <clipPath id="nzujtibe7a">
            <path fill="#fff" d="M0 0h20v20H0z"/>
        </clipPath>
    </defs>
</svg>
