<svg width="34" height="34" viewBox="0 0 34 34" fill="none" xmlns="http://www.w3.org/2000/svg">
    <path d="m7.799 16.163.53.53-.53-.53zm-3.549 5.02H3.5h.75zm8.568 8.567v.75-.75zm3.345-21.951-.53-.53.53.53zm2.816 17.26a.75.75 0 0 0 1.06-1.061l-1.06 1.06zM10.002 13.96a.75.75 0 0 0-1.06 1.06l1.06-1.06zm15.669 3.346-8.365 8.365 1.06 1.06 8.366-8.364-1.061-1.06zm-17.342-.612 8.365-8.365-1.06-1.06-8.365 8.364 1.06 1.06zm0 8.977c-1.198-1.198-2.042-2.044-2.596-2.77-.54-.709-.733-1.214-.733-1.719H3.5c0 .965.399 1.787 1.04 2.629.63.824 1.56 1.753 2.729 2.92l1.06-1.06zM7.27 15.633C6.1 16.801 5.17 17.73 4.54 18.554c-.642.842-1.041 1.663-1.041 2.628H5c0-.505.193-1.01.733-1.718.554-.726 1.398-1.572 2.596-2.77l-1.06-1.06zm10.037 10.038c-1.198 1.198-2.044 2.042-2.77 2.596-.708.54-1.213.733-1.718.733v1.5c.965 0 1.786-.399 2.628-1.04.825-.63 1.753-1.56 2.92-2.729l-1.06-1.06zM7.27 26.73c1.167 1.168 2.096 2.099 2.92 2.728.842.642 1.664 1.041 2.629 1.041V29c-.505 0-1.01-.193-1.719-.733-.726-.554-1.572-1.398-2.77-2.596l-1.06 1.06zM25.67 8.33c1.198 1.198 2.042 2.044 2.596 2.77.54.709.733 1.214.733 1.719h1.5c0-.965-.399-1.787-1.04-2.629-.63-.824-1.56-1.753-2.729-2.92l-1.06 1.06zm1.06 10.038c1.168-1.168 2.099-2.096 2.728-2.921.642-.842 1.041-1.663 1.041-2.628H29c0 .505-.193 1.01-.733 1.718-.554.726-1.398 1.572-2.596 2.77l1.06 1.06zm0-11.098C25.564 6.1 24.636 5.17 23.812 4.54c-.842-.642-1.664-1.041-2.629-1.041V5c.505 0 1.01.193 1.719.733.726.554 1.572 1.398 2.77 2.596l1.06-1.06zm-10.037 1.06c1.198-1.198 2.044-2.042 2.77-2.596.708-.54 1.213-.733 1.718-.733V3.5c-.965 0-1.786.399-2.628 1.04-.825.63-1.753 1.56-2.92 2.729l1.06 1.06zm3.346 15.669L10.002 13.96l-1.06 1.06L18.978 25.06l1.06-1.061z" fill="#323232"/>
    <path d="M12.75 29.75h17" stroke="#323232" stroke-width="1.5" stroke-linecap="round"/>
</svg>
