<svg width="141" height="31" viewBox="0 0 141 31" fill="none" xmlns="http://www.w3.org/2000/svg">
    <path d="M44.818 3.935h13.77v3.516h-9.524v4.987h8.814v3.516h-8.814v4.987h9.55v3.516H44.813V3.935h.005zM69.92 12.21h-2.893v7.508c-.015 1.234.597 1.53 1.447 1.56.425 0 1.161-.04 1.67-.082v3.318c-.452.073-1.204.155-2.24.14-3.034.015-5.102-1.348-5.071-4.335v-8.103h-2.126V9.068h2.126V5.382h4.194v3.686h2.893v3.148-.006zM72.893 30.15v-3.261c.539.04 1.177.056 1.7.056.835 0 1.504-.082 2.012-1.415l.254-.653-5.527-15.814h4.392l3.23 11.334h.17l3.262-11.334h4.449l-6.01 17.09c-.876 2.478-2.566 4.064-5.812 4.08-.824-.016-1.586-.026-2.126-.083h.006zM88.887 9.063h3.997v2.691h.171c.654-1.8 2.209-2.893 4.278-2.893 2.069 0 3.686 1.12 4.194 2.893h.14c.638-1.742 2.396-2.893 4.646-2.893 2.846 0 4.848 1.882 4.848 5.242v10.343h-4.195v-9.524c.016-1.758-1.037-2.608-2.411-2.608-1.571 0-2.509 1.089-2.494 2.722v9.41h-4.08v-9.633c.015-1.514-.949-2.494-2.38-2.494s-2.535 1.146-2.52 2.893v9.24h-4.194V9.063zM113.766 16.83c-.016-4.75 2.919-7.964 7.424-7.964 4.039 0 7.228 2.551 7.228 7.793v1.192h-10.515c0 2.323 1.374 3.754 3.541 3.77 1.431-.016 2.453-.638 2.862-1.56h3.998c-.596 2.846-3.147 4.691-6.943 4.702-4.718-.016-7.611-3.06-7.595-7.933zm10.686-1.618c-.016-1.871-1.302-3.214-3.174-3.204-1.928-.015-3.287 1.431-3.37 3.204h6.549-.005zM131.059 9.063h4.054v2.665h.171c.555-1.882 1.986-2.893 3.713-2.893.425 0 .964.057 1.332.14v3.743c-.399-.13-1.203-.228-1.784-.228-1.897 0-3.302 1.317-3.287 3.204v8.758h-4.194V9.063h-.005z" fill="#fff"/>
    <path d="m35.045 19.666-3.489 7.212s-.54 1.322-3.749 1.535c-4.505.3-14.885.436-14.885.436l4.62-9.55 17.503.367z" fill="url(#ck2tip80xa)"/>
    <path d="m35.046 19.666-7.264-.15-6.196-8.57 4.334-8.96 9.4 12.381c.514.68.758 1.53.654 2.375-.088.731-.342 1.711-.928 2.924z" fill="url(#1zt1ybqo5b)"/>
    <path d="M3.954 4.578.464 11.79s-.7 1.24 1.12 3.894c2.562 3.723 8.892 11.946 8.892 11.946l4.62-9.55L3.954 4.577z" fill="url(#jykibojbpc)"/>
    <path d="m3.957 4.578 4.625 5.6 10.566-.462L23.483.767l-15.544.311c-.85.016-1.67.353-2.266.96-.518.523-1.13 1.327-1.716 2.54z" fill="url(#ww16tfragd)"/>
    <defs>
        <linearGradient id="ck2tip80xa" x1="32.461" y1="23.868" x2="15.475" y2="24.059" gradientUnits="userSpaceOnUse">
            <stop stop-color="#7500FA"/>
            <stop offset=".17" stop-color="#7500FA" stop-opacity=".98"/>
            <stop offset=".37" stop-color="#7500FA" stop-opacity=".93"/>
            <stop offset=".57" stop-color="#7500FA" stop-opacity=".84"/>
            <stop offset=".78" stop-color="#7500FA" stop-opacity=".71"/>
            <stop offset="1" stop-color="#7500FA" stop-opacity=".55"/>
        </linearGradient>
        <linearGradient id="1zt1ybqo5b" x1="32.039" y1="17.967" x2="23.963" y2="6.042" gradientUnits="userSpaceOnUse">
            <stop offset=".19" stop-color="#3080FA"/>
            <stop offset="1" stop-color="#75ADFA" stop-opacity=".55"/>
        </linearGradient>
        <linearGradient id="jykibojbpc" x1="2.212" y1="9.184" x2="12.606" y2="22.628" gradientUnits="userSpaceOnUse">
            <stop stop-color="#7500FA"/>
            <stop offset=".17" stop-color="#7500FA" stop-opacity=".98"/>
            <stop offset=".37" stop-color="#7500FA" stop-opacity=".93"/>
            <stop offset=".57" stop-color="#7500FA" stop-opacity=".84"/>
            <stop offset=".78" stop-color="#7500FA" stop-opacity=".71"/>
            <stop offset="1" stop-color="#7500FA" stop-opacity=".55"/>
        </linearGradient>
        <linearGradient id="ww16tfragd" x1="7.102" y1="5.857" x2="21.468" y2="4.785" gradientUnits="userSpaceOnUse">
            <stop offset=".19" stop-color="#3080FA"/>
            <stop offset="1" stop-color="#75ADFA" stop-opacity=".55"/>
        </linearGradient>
    </defs>
</svg>
