<svg width="270" height="34" viewBox="0 0 270 34" fill="none" xmlns="http://www.w3.org/2000/svg">
    <path d="M0 32.622h14.157c6.658 0 10.703-3.616 10.703-8.576 0-4.351-3.182-7.147-7.037-7.273v-.294c3.476-.715 5.836-3.279 5.857-6.642-.021-4.645-3.666-7.651-10.618-7.651H0v30.436zm8.006-6.432v-6.642h4.213c2.57 0 4.171 1.282 4.171 3.489 0 2.06-1.411 3.174-4.297 3.153H8.006zm0-11.645V8.492h3.707c2.17 0 3.708 1.093 3.708 3.026 0 1.934-1.58 3.027-3.834 3.027H8.006zM26.025 26.316c0 4.54 3.097 6.663 7.458 6.684 3.055-.021 5.288-1.093 6.657-3.573h.169v3.195h7.458V17.025c0-4.392-4.108-7.524-10.45-7.524-6.741 0-10.112 3.51-10.407 7.65h7.374c.19-1.45 1.285-2.143 2.907-2.143 1.559 0 2.591.714 2.612 1.975v1.85c-.927.042-3.623.126-5.35.21-4.657.274-8.428 2.25-8.428 7.273zm7.5-.463c.021-1.24.927-2.165 2.36-2.354 1.053-.105 3.16-.189 3.96-.21v1.22c.022 2.143-1.79 3.425-3.792 3.404-1.474.021-2.507-.693-2.528-2.06zM64.228 17.152h7.331C71.327 12.38 67.367 9.5 60.857 9.5c-6.447 0-10.45 2.669-10.45 7.398 0 3.552 2.318 5.844 6.953 6.684l4.002.715c1.833.336 2.655.84 2.697 1.766-.042 1.009-1.18 1.576-2.78 1.597-1.918-.02-3.245-.84-3.498-2.312H49.86c.484 4.624 4.466 7.693 11.376 7.693 6.3 0 10.87-3.069 10.913-7.903-.042-3.363-2.296-5.339-6.952-6.18l-4.55-.84c-1.813-.337-2.34-.988-2.318-1.682-.021-1.009 1.2-1.619 2.696-1.598 1.686-.02 3.055.883 3.203 2.313zM74.494 32.622h7.964V9.795h-7.964v22.827zm0-28.965c-.02 2.04 1.77 3.679 3.961 3.658 2.17.02 3.96-1.619 3.96-3.658 0-2.018-1.79-3.657-3.96-3.657-2.191 0-3.982 1.64-3.96 3.657zM96.728 33.042c6.678 0 10.786-3.847 10.912-9.795h-7.415c-.19 2.417-1.538 3.72-3.371 3.741-2.296-.02-3.771-1.954-3.792-5.8.02-3.805 1.517-5.739 3.792-5.718 1.875-.021 3.139 1.303 3.371 3.7h7.415c-.084-5.865-4.297-9.67-10.912-9.67-7.374 0-11.777 4.75-11.798 11.771.02 7 4.403 11.771 11.797 11.771zM135.042 11.602h7.711c-.042-5.906-4.656-9.836-11.966-9.836-7.163 0-12.262 3.867-12.22 9.626-.021 4.709 3.266 7.357 8.638 8.534l3.076.673c3.392.735 4.656 1.597 4.677 3.069-.021 1.618-1.496 2.732-4.256 2.732-3.181 0-5.14-1.492-5.267-4.33h-7.668c.063 7.504 5.182 10.909 13.062 10.93 7.71-.021 12.303-3.363 12.345-9.332-.042-4.688-2.97-7.862-9.522-9.249l-2.528-.588c-2.845-.589-4.277-1.45-4.214-3.027.021-1.408 1.243-2.46 3.877-2.438 2.738-.021 4.087 1.198 4.255 3.236zM156.517 33.042c6.257 0 10.302-2.985 11.081-7.693h-7.289c-.506 1.324-1.875 2.06-3.624 2.06-2.549 0-4.045-1.66-4.045-4.036v-.294h15v-1.892c-.021-7.335-4.508-11.686-11.292-11.686-7.057 0-11.566 4.708-11.587 11.77.021 7.378 4.467 11.771 11.756 11.771zm-3.877-14.42c.064-2.059 1.749-3.51 3.877-3.488 2.128-.021 3.729 1.429 3.75 3.489h-7.627zM170.154 32.622h7.964V20.599c-.021-2.649 1.812-4.414 4.298-4.414.863 0 2.212.147 2.991.42V9.753c-.632-.147-1.369-.273-2.064-.252-2.465-.021-4.403 1.429-5.225 4.582h-.253V9.795h-7.711v22.827zM210.758 9.795h-8.342l-3.877 15.26h-.21l-3.835-15.26h-8.384l7.71 22.827h9.228l7.71-22.827zM212.303 32.622h7.964V9.795h-7.964v22.827zm0-28.965c-.021 2.04 1.77 3.679 3.961 3.658 2.17.02 3.961-1.619 3.961-3.658 0-2.018-1.791-3.657-3.961-3.657-2.191 0-3.982 1.64-3.961 3.657zM234.537 33.042c6.678 0 10.786-3.847 10.912-9.795h-7.415c-.19 2.417-1.538 3.72-3.371 3.741-2.296-.02-3.771-1.954-3.792-5.8.021-3.805 1.517-5.739 3.792-5.718 1.875-.021 3.139 1.303 3.371 3.7h7.415c-.084-5.865-4.297-9.67-10.912-9.67-7.374 0-11.777 4.75-11.798 11.771.021 7 4.403 11.771 11.798 11.771zM258.876 33.042c6.257 0 10.302-2.985 11.082-7.693h-7.289c-.506 1.324-1.875 2.06-3.624 2.06-2.549 0-4.045-1.66-4.045-4.036v-.294h15v-1.892c-.021-7.335-4.508-11.686-11.292-11.686-7.058 0-11.566 4.708-11.587 11.77.021 7.378 4.466 11.771 11.755 11.771zM255 18.622c.063-2.059 1.749-3.51 3.876-3.488 2.128-.021 3.729 1.429 3.75 3.489H255z" fill="#39007A"/>
</svg>
