<svg width="221" height="47" viewBox="0 0 221 47" fill="none" xmlns="http://www.w3.org/2000/svg">
    <path d="M70.403 5.527h21.64v5.525H77.077v7.838h13.852v5.525H77.076v7.838h15.009v5.524h-21.69V5.527h.008zM109.854 18.532h-4.547V30.33c-.024 1.94.938 2.404 2.274 2.453.668 0 1.825-.065 2.623-.13v5.214c-.708.114-1.89.245-3.519.22-4.767.025-8.018-2.118-7.97-6.812V18.54h-3.34v-4.946h3.34V7.801h6.592v5.793h4.547v4.946-.008zM114.531 46.724V41.6c.847.065 1.849.09 2.672.09 1.312 0 2.363-.13 3.162-2.225l.399-1.026-8.686-24.852h6.902l5.076 17.812h.269l5.125-17.812h6.991l-9.444 26.856c-1.377 3.895-4.033 6.388-9.134 6.413-1.295-.025-2.493-.041-3.34-.13h.008zM139.656 13.585h6.282v4.23h.269c1.027-2.828 3.471-4.547 6.722-4.547 3.252 0 5.794 1.76 6.592 4.546h.22c1.002-2.738 3.765-4.546 7.301-4.546 4.473 0 7.618 2.957 7.618 8.237v16.256h-6.591V22.793c.024-2.762-1.63-4.099-3.789-4.099-2.469 0-3.944 1.711-3.92 4.278V37.76h-6.412V22.62c.024-2.379-1.491-3.919-3.74-3.919s-3.984 1.801-3.96 4.547v14.52h-6.592V13.585zM178.758 25.79c-.025-7.463 4.587-12.515 11.668-12.515 6.347 0 11.358 4.01 11.358 12.247v1.874H185.26c0 3.65 2.159 5.9 5.565 5.924 2.249-.025 3.854-1.003 4.498-2.453h6.282c-.937 4.473-4.946 7.374-10.91 7.39-7.415-.024-11.962-4.807-11.937-12.466zm16.793-2.541c-.024-2.942-2.045-5.052-4.987-5.036-3.031-.024-5.165 2.249-5.296 5.036h10.291-.008zM205.93 13.585h6.371v4.188h.269c.872-2.958 3.121-4.546 5.834-4.546.669 0 1.516.09 2.094.22v5.883c-.627-.204-1.89-.36-2.803-.36-2.982 0-5.19 2.07-5.165 5.037v13.762h-6.592V13.585h-.008z" fill="#22045B"/>
    <path d="m55.053 30.25-5.484 11.334s-.847 2.078-5.89 2.412c-7.081.473-23.394.685-23.394.685l7.26-15.01 27.508.58z" fill="url(#onlirb3xga)"/>
    <path d="m55.055 30.25-11.416-.236-9.737-13.47 6.812-14.08 14.773 19.458a5.162 5.162 0 0 1 1.026 3.732c-.138 1.15-.538 2.69-1.458 4.596z" fill="url(#zletx48jvb)"/>
    <path d="M6.192 6.537.708 17.871s-1.1 1.948 1.76 6.12c4.025 5.85 13.974 18.772 13.974 18.772l7.26-15.008L6.192 6.537z" fill="url(#jludirveuc)"/>
    <path d="m6.191 6.538 7.269 8.8 16.605-.726L36.877.55l-24.428.489a5.119 5.119 0 0 0-3.56 1.507c-.815.823-1.777 2.086-2.698 3.993z" fill="url(#7180e9a29d)"/>
    <defs>
        <linearGradient id="onlirb3xga" x1="50.992" y1="36.854" x2="24.298" y2="37.154" gradientUnits="userSpaceOnUse">
            <stop stop-color="#7500FA"/>
            <stop offset=".17" stop-color="#7500FA" stop-opacity=".98"/>
            <stop offset=".37" stop-color="#7500FA" stop-opacity=".93"/>
            <stop offset=".57" stop-color="#7500FA" stop-opacity=".84"/>
            <stop offset=".78" stop-color="#7500FA" stop-opacity=".71"/>
            <stop offset="1" stop-color="#7500FA" stop-opacity=".55"/>
        </linearGradient>
        <linearGradient id="zletx48jvb" x1="50.33" y1="27.58" x2="37.638" y2="8.839" gradientUnits="userSpaceOnUse">
            <stop offset=".19" stop-color="#3080FA"/>
            <stop offset="1" stop-color="#75ADFA" stop-opacity=".55"/>
        </linearGradient>
        <linearGradient id="jludirveuc" x1="3.455" y1="13.775" x2="19.789" y2="34.903" gradientUnits="userSpaceOnUse">
            <stop stop-color="#7500FA"/>
            <stop offset=".17" stop-color="#7500FA" stop-opacity=".98"/>
            <stop offset=".37" stop-color="#7500FA" stop-opacity=".93"/>
            <stop offset=".57" stop-color="#7500FA" stop-opacity=".84"/>
            <stop offset=".78" stop-color="#7500FA" stop-opacity=".71"/>
            <stop offset="1" stop-color="#7500FA" stop-opacity=".55"/>
        </linearGradient>
        <linearGradient id="7180e9a29d" x1="11.134" y1="8.548" x2="33.71" y2="6.862" gradientUnits="userSpaceOnUse">
            <stop offset=".19" stop-color="#3080FA"/>
            <stop offset="1" stop-color="#75ADFA" stop-opacity=".55"/>
        </linearGradient>
    </defs>
</svg>
