<svg width="140" height="18" viewBox="0 0 140 18" fill="none" xmlns="http://www.w3.org/2000/svg">
    <path d="M0 16.954h7.34c3.453 0 5.55-1.88 5.55-4.457 0-2.261-1.65-3.714-3.648-3.78v-.153c1.802-.371 3.025-1.704 3.036-3.452-.01-2.414-1.9-3.976-5.505-3.976H0v15.818zm4.151-3.343V10.16h2.185c1.333 0 2.163.666 2.163 1.813 0 1.071-.732 1.65-2.229 1.64H4.151zm0-6.052V4.413h1.923c1.125 0 1.922.568 1.922 1.573S7.177 7.56 6.008 7.56H4.151zM13.495 13.677c0 2.36 1.605 3.463 3.867 3.473 1.584-.01 2.742-.568 3.452-1.857h.087v1.66h3.867V8.849c0-2.283-2.13-3.91-5.418-3.91-3.496 0-5.244 1.824-5.397 3.976h3.824c.098-.754.666-1.114 1.507-1.114.809 0 1.344.371 1.355 1.026v.962c-.48.022-1.88.065-2.775.109-2.414.142-4.37 1.169-4.37 3.78zm3.889-.24c.01-.645.48-1.126 1.223-1.224a38.259 38.259 0 0 1 2.054-.11v.634c.01 1.114-.929 1.78-1.967 1.77-.764.01-1.3-.36-1.31-1.07zM33.303 8.914h3.802c-.12-2.48-2.174-3.976-5.55-3.976-3.342 0-5.418 1.387-5.418 3.845 0 1.846 1.202 3.037 3.605 3.474l2.075.371c.95.175 1.377.437 1.399.918-.022.524-.612.819-1.442.83-.994-.011-1.682-.437-1.814-1.202h-4.107c.251 2.403 2.316 3.998 5.899 3.998 3.266 0 5.637-1.595 5.659-4.107-.022-1.748-1.191-2.775-3.605-3.212l-2.36-.437c-.94-.174-1.212-.513-1.202-.874-.01-.524.623-.84 1.399-.83.874-.01 1.584.459 1.66 1.202zM38.627 16.954h4.129V5.09h-4.13v11.863zm0-15.053c-.011 1.06.917 1.911 2.053 1.9 1.126.011 2.054-.84 2.054-1.9C42.734.852 41.806 0 40.68 0c-1.136 0-2.064.852-2.053 1.9zM50.155 17.172c3.463 0 5.593-1.999 5.659-5.09h-3.846c-.098 1.256-.797 1.933-1.747 1.944-1.191-.01-1.956-1.016-1.967-3.015.011-1.977.787-2.982 1.967-2.971.972-.011 1.627.677 1.747 1.923h3.846c-.044-3.048-2.229-5.025-5.659-5.025-3.823 0-6.106 2.468-6.117 6.117.01 3.638 2.283 6.117 6.117 6.117zM70.022 6.03h3.998C73.998 2.96 71.606.918 67.815.918c-3.714 0-6.357 2.01-6.336 5.003-.01 2.447 1.694 3.823 4.48 4.435l1.594.35c1.759.382 2.414.83 2.425 1.594-.01.841-.775 1.42-2.206 1.42-1.65 0-2.666-.775-2.731-2.25h-3.977c.033 3.9 2.688 5.67 6.773 5.68 3.998-.01 6.38-1.747 6.401-4.85-.021-2.436-1.54-4.085-4.937-4.806l-1.311-.306c-1.475-.306-2.218-.754-2.185-1.573.011-.732.645-1.278 2.01-1.267 1.42-.011 2.12.622 2.207 1.682zM81.157 17.172c3.244 0 5.342-1.55 5.746-3.998h-3.78c-.262.688-.972 1.07-1.879 1.07-1.322 0-2.097-.862-2.097-2.097v-.153h7.778v-.983c-.011-3.812-2.338-6.073-5.855-6.073-3.66 0-5.998 2.447-6.009 6.117.011 3.834 2.316 6.117 6.096 6.117zm-2.01-7.493c.033-1.071.907-1.825 2.01-1.814 1.103-.01 1.933.743 1.944 1.814h-3.954zM88.228 16.954h4.13v-6.249c-.011-1.376.939-2.294 2.228-2.294.448 0 1.147.077 1.551.219V5.069a4.29 4.29 0 0 0-1.07-.131c-1.278-.011-2.283.742-2.71 2.381h-.13V5.091h-3.999v11.863zM109.282 5.09h-4.326l-2.01 7.931h-.109l-1.988-7.93h-4.348l3.998 11.863h4.785l3.998-11.863zM110.083 16.954h4.129V5.09h-4.129v11.863zm0-15.053c-.011 1.06.918 1.911 2.054 1.9 1.125.011 2.054-.84 2.054-1.9 0-1.049-.929-1.901-2.054-1.901-1.136 0-2.065.852-2.054 1.9zM121.612 17.172c3.462 0 5.593-1.999 5.658-5.09h-3.845c-.098 1.256-.798 1.933-1.748 1.944-1.191-.01-1.955-1.016-1.966-3.015.011-1.977.786-2.982 1.966-2.971.972-.011 1.628.677 1.748 1.923h3.845c-.044-3.048-2.228-5.025-5.658-5.025-3.824 0-6.107 2.468-6.118 6.117.011 3.638 2.283 6.117 6.118 6.117zM134.232 17.172c3.245 0 5.342-1.55 5.746-3.998h-3.779c-.263.688-.973 1.07-1.879 1.07-1.322 0-2.098-.862-2.098-2.097v-.153H140v-.983c-.011-3.812-2.338-6.073-5.855-6.073-3.66 0-5.997 2.447-6.008 6.117.011 3.834 2.316 6.117 6.095 6.117zm-2.01-7.493c.033-1.071.907-1.825 2.01-1.814 1.104-.01 1.934.743 1.945 1.814h-3.955z" fill="#fff"/>
</svg>
