<svg width="19" height="19" viewBox="0 0 19 19" fill="none" xmlns="http://www.w3.org/2000/svg">
    <g opacity=".6">
        <path d="M1.695 9.229c0-2.829 0-4.243.879-5.122.879-.878 2.293-.878 5.121-.878h3c2.829 0 4.243 0 5.122.878.878.879.878 2.293.878 5.122v1.5c0 2.828 0 4.242-.878 5.12-.879.88-2.293.88-5.122.88h-3c-2.828 0-4.242 0-5.121-.88-.879-.878-.879-2.292-.879-5.12v-1.5z" stroke="#323232" stroke-width="1.282"/>
        <path d="M5.445 3.229V2.104M12.945 3.229V2.104M2.07 6.979h14.25" stroke="#323232" stroke-width="1.282" stroke-linecap="round"/>
        <path d="M13.695 12.979a.75.75 0 1 1-1.5 0 .75.75 0 0 1 1.5 0zM13.695 9.979a.75.75 0 1 1-1.5 0 .75.75 0 0 1 1.5 0zM9.945 12.979a.75.75 0 1 1-1.5 0 .75.75 0 0 1 1.5 0zM9.945 9.979a.75.75 0 1 1-1.5 0 .75.75 0 0 1 1.5 0zM6.195 12.979a.75.75 0 1 1-1.5 0 .75.75 0 0 1 1.5 0zM6.195 9.979a.75.75 0 1 1-1.5 0 .75.75 0 0 1 1.5 0z" fill="#323232"/>
    </g>
</svg>
