<svg width="20" height="20" viewBox="0 0 20 20" fill="none" xmlns="http://www.w3.org/2000/svg">
    <path d="M2.73 12.746c-.709-.92-1.063-1.38-1.063-2.746s.354-1.826 1.062-2.746C4.144 5.416 6.515 3.334 10 3.334s5.857 2.082 7.271 3.92c.709.92 1.063 1.38 1.063 2.746s-.354 1.826-1.063 2.746c-1.414 1.838-3.786 3.92-7.27 3.92-3.486 0-5.857-2.082-7.272-3.92z" stroke="#323232" stroke-width="1.318"/>
    <path d="M12.5 10a2.5 2.5 0 1 1-5 0 2.5 2.5 0 0 1 5 0z" stroke="#323232" stroke-width="1.318"/>
</svg>
