<svg width="34" height="34" viewBox="0 0 34 34" fill="none" xmlns="http://www.w3.org/2000/svg">
    <path d="M22.667 5.67c3.081.016 4.75.153 5.838 1.242 1.245 1.244 1.245 3.248 1.245 7.255v8.5c0 4.007 0 6.01-1.245 7.255s-3.248 1.245-7.255 1.245h-8.5c-4.007 0-6.01 0-7.255-1.245S4.25 26.674 4.25 22.667v-8.5c0-4.007 0-6.01 1.245-7.255 1.088-1.089 2.757-1.226 5.838-1.243" stroke="#323232" stroke-width="1.5"/>
    <path d="M11.333 19.833h11.333M9.917 14.875h14.167M12.75 24.792h8.5" stroke="#323232" stroke-width="1.5" stroke-linecap="round"/>
    <path d="M11.333 4.958c0-1.173.951-2.125 2.125-2.125h7.083c1.174 0 2.125.952 2.125 2.125v1.417A2.125 2.125 0 0 1 20.541 8.5h-7.083a2.125 2.125 0 0 1-2.125-2.125V4.958z" stroke="#323232" stroke-width="1.5"/>
</svg>
