<svg width="34" height="34" viewBox="0 0 34 34" fill="none" xmlns="http://www.w3.org/2000/svg">
    <path d="M8.5 15.583c0-4.007 0-6.01 1.245-7.255S12.993 7.083 17 7.083h4.25c4.007 0 6.01 0 7.255 1.245s1.245 3.248 1.245 7.255v7.084c0 4.006 0 6.01-1.245 7.255s-3.248 1.245-7.255 1.245H17c-4.007 0-6.01 0-7.255-1.245S8.5 26.674 8.5 22.667v-7.084z" stroke="#323232" stroke-width="1.5"/>
    <path d="M8.5 26.917a4.25 4.25 0 0 1-4.25-4.25v-8.5c0-5.343 0-8.014 1.66-9.674 1.66-1.66 4.33-1.66 9.673-1.66h5.667a4.25 4.25 0 0 1 4.25 4.25" stroke="#323232" stroke-width="1.5"/>
</svg>
