<svg width="48" height="48" viewBox="0 0 48 48" fill="none" xmlns="http://www.w3.org/2000/svg">
    <path fill-rule="evenodd" clip-rule="evenodd" d="M10.5 16.524V16.5h2v.024a1 1 0 1 1-2 0zm1 1.827a1 1 0 0 1 1 1v.048a1 1 0 1 1-2 0v-.048a1 1 0 0 1 1-1zm0 2.875a1 1 0 0 1 1 1v.048a1 1 0 1 1-2 0v-.048a1 1 0 0 1 1-1zm0 2.875a1 1 0 0 1 1 1v.048a1 1 0 1 1-2 0V25.1a1 1 0 0 1 1-1zm0 2.875a1 1 0 0 1 1 1v.048a1 1 0 1 1-2 0v-.048a1 1 0 0 1 1-1zm0 2.875a1 1 0 0 1 1 1v.048a1 1 0 1 1-2 0v-.048a1 1 0 0 1 1-1zm0 2.875a1 1 0 0 1 1 1v.048a1 1 0 1 1-2 0v-.048a1 1 0 0 1 1-1zm0 2.875a1 1 0 0 1 1 1v.048a1 1 0 1 1-2 0V36.6a1 1 0 0 1 1-1zm.724 3.185a1 1 0 0 0-1.724.69v.024a1 1 0 0 0 1 1h.023a1 1 0 0 0 .7-1.714zm1.086.714a1 1 0 0 1 1-1h.047a1 1 0 0 1 0 2h-.047a1 1 0 0 1-1-1zm2.833 0a1 1 0 0 1 1-1h.047a1 1 0 1 1 0 2h-.047a1 1 0 0 1-1-1zm2.834 0a1 1 0 0 1 1-1h.046a1 1 0 1 1 0 2h-.046a1 1 0 0 1-1-1zm2.833 0a1 1 0 0 1 1-1h.047a1 1 0 0 1 0 2h-.047a1 1 0 0 1-1-1zm2.833 0a1 1 0 0 1 1-1h.047a1 1 0 1 1 0 2h-.047a1 1 0 0 1-1-1zm2.834 0a1 1 0 0 1 1-1h.023v2h-.023a1 1 0 0 1-1-1zM3 4.5A1.5 1.5 0 0 1 4.5 3h14A1.5 1.5 0 0 1 20 4.5v10a1.5 1.5 0 0 1-1.5 1.5h-14A1.5 1.5 0 0 1 3 14.5v-10zm1.5 0v10h14v-10h-14z" fill="#140CF2"/>
    <path fill-rule="evenodd" clip-rule="evenodd" d="M28 33.5a1.5 1.5 0 0 1 1.5-1.5h14a1.5 1.5 0 0 1 1.5 1.5v10a1.5 1.5 0 0 1-1.5 1.5h-14a1.5 1.5 0 0 1-1.5-1.5v-10zm1.5 0v10h14v-10h-14zM10.5 25a1 1 0 0 1 1-1h.023a1 1 0 1 1 0 2H11.5a1 1 0 0 1-1-1zm2.81 0a1 1 0 0 1 1-1h.047a1 1 0 0 1 0 2h-.047a1 1 0 0 1-1-1zm2.833 0a1 1 0 0 1 1-1h.047a1 1 0 1 1 0 2h-.047a1 1 0 0 1-1-1zm2.834 0a1 1 0 0 1 1-1h.046a1 1 0 1 1 0 2h-.046a1 1 0 0 1-1-1zm2.833 0a1 1 0 0 1 1-1h.047a1 1 0 0 1 0 2h-.047a1 1 0 0 1-1-1zm2.833 0a1 1 0 0 1 1-1h.047a1 1 0 1 1 0 2h-.047a1 1 0 0 1-1-1zm2.834 0a1 1 0 0 1 1-1h.023a1 1 0 1 1 0 2h-.023a1 1 0 0 1-1-1z" fill="#140CF2"/>
    <path d="M29.5 17.5h14v10h-14v-10z" fill="#6580DD" fill-opacity=".5"/>
    <path fill-rule="evenodd" clip-rule="evenodd" d="M28 17.5a1.5 1.5 0 0 1 1.5-1.5h14a1.5 1.5 0 0 1 1.5 1.5v10a1.5 1.5 0 0 1-1.5 1.5h-14a1.5 1.5 0 0 1-1.5-1.5v-10zm1.5 0v10h14v-10h-14z" fill="#140CF2"/>
</svg>
