<svg width="18" height="18" viewBox="0 0 18 18" fill="none" xmlns="http://www.w3.org/2000/svg">
<path d="M4.66656 3.45091C4.99999 3.22812 5.35008 3.03489 5.71283 2.87244C6.74173 2.41166 7.25618 2.18127 7.94059 2.62467C8.625 3.06808 8.625 3.79543 8.625 5.25013V6.37513C8.625 7.78934 8.625 8.49645 9.06434 8.93579C9.50368 9.37513 10.2108 9.37513 11.625 9.37513H12.75C14.2047 9.37513 14.9321 9.37513 15.3755 10.0595C15.8189 10.7439 15.5885 11.2584 15.1277 12.2873C14.9652 12.65 14.772 13.0001 14.5492 13.3336C13.7663 14.5053 12.6535 15.4185 11.3516 15.9578C10.0497 16.497 8.6171 16.6381 7.23499 16.3632C5.85287 16.0883 4.58332 15.4097 3.58687 14.4133C2.59042 13.4168 1.91183 12.1473 1.63691 10.7651C1.36199 9.38303 1.50309 7.95043 2.04236 6.64851C2.58164 5.34658 3.49486 4.23381 4.66656 3.45091Z" stroke="white" stroke-width="1.0293"/>
<path d="M16.0845 5.30151C15.4757 3.75599 14.2438 2.5241 12.6983 1.91524C11.5421 1.45977 10.5 2.50713 10.5 3.74977V6.74977C10.5 7.16398 10.8358 7.49977 11.25 7.49977H14.25C15.4926 7.49977 16.54 6.45767 16.0845 5.30151Z" stroke="white" stroke-width="1.0293"/>
</svg>
