<svg width="34" height="34" viewBox="0 0 34 34" fill="none" xmlns="http://www.w3.org/2000/svg">
    <path d="M7.969 13.813a1.594 1.594 0 1 0 0-3.188 1.594 1.594 0 0 0 0 3.188zM17 13.813a1.594 1.594 0 1 0 0-3.188 1.594 1.594 0 0 0 0 3.188zM26.031 13.813a1.594 1.594 0 1 0 0-3.188 1.594 1.594 0 0 0 0 3.188zM7.969 23.375a1.594 1.594 0 1 0 0-3.187 1.594 1.594 0 0 0 0 3.187zM17 23.375a1.594 1.594 0 1 0 0-3.188 1.594 1.594 0 0 0 0 3.188zM26.031 23.375a1.594 1.594 0 1 0 0-3.187 1.594 1.594 0 0 0 0 3.187z" fill="#777"/>
</svg>
