<svg width="38" height="38" viewBox="0 0 38 38" fill="none" xmlns="http://www.w3.org/2000/svg">
    <path d="m24.372 6.418-.795.883.794-.883zm6.268 5.641-.795.883.795-.883zm3.645 4.018-1.085.483 1.085-.483zM5.02 32.978l.84-.84-.84.84zm27.957 0-.84-.84.84.84zm-10.812.668h-6.333v2.375h6.333v-2.375zM4.354 22.166v-6.333H1.979v6.334h2.375zm29.291-.692v.693h2.375v-.693h-2.375zM23.577 7.301l6.268 5.641 1.589-1.765-6.268-5.641L23.577 7.3zM36.02 21.474c0-2.673.024-4.365-.65-5.88l-2.17.966c.421.946.445 2.032.445 4.915h2.375zm-6.175-8.532c2.143 1.929 2.934 2.673 3.355 3.618l2.17-.966c-.675-1.514-1.949-2.629-3.936-4.417l-1.589 1.765zM15.88 4.354c2.504 0 3.45.018 4.292.342l.85-2.218c-1.348-.517-2.817-.499-5.142-.499v2.375zm9.286 1.182c-1.72-1.548-2.795-2.54-4.143-3.058l-.851 2.218c.842.323 1.553.938 3.405 2.605l1.589-1.765zm-9.333 28.11c-3.02 0-5.164-.003-6.791-.221-1.593-.215-2.511-.616-3.181-1.286l-1.68 1.679c1.185 1.185 2.688 1.71 4.544 1.96 1.822.245 4.156.243 7.108.243v-2.375zM1.979 22.166c0 2.953-.003 5.286.242 7.108.25 1.857.775 3.36 1.96 4.544l1.68-1.68c-.67-.67-1.072-1.587-1.286-3.18-.219-1.627-.221-3.772-.221-6.791H1.979zm20.187 13.855c2.952 0 5.285.002 7.108-.243 1.856-.25 3.358-.775 4.543-1.96l-1.679-1.68c-.67.67-1.588 1.072-3.18 1.287-1.628.218-3.773.22-6.792.22v2.376zm11.48-13.854c0 3.019-.003 5.164-.222 6.79-.214 1.594-.616 2.511-1.286 3.182l1.68 1.679c1.184-1.185 1.71-2.687 1.96-4.544.245-1.822.242-4.155.242-7.107h-2.375zM4.353 15.833c0-3.019.002-5.164.22-6.79.215-1.594.617-2.512 1.287-3.182l-1.68-1.68c-1.185 1.186-1.71 2.688-1.96 4.545-.245 1.822-.242 4.155-.242 7.107h2.375zM15.88 1.98c-2.968 0-5.313-.002-7.142.242-1.863.25-3.37.775-4.557 1.96l1.68 1.68c.669-.669 1.59-1.071 3.192-1.285 1.635-.22 3.792-.222 6.827-.222V1.98z" fill="#323232"/>
    <path d="M20.584 3.958v3.959c0 3.732 0 5.598 1.16 6.757 1.159 1.16 3.025 1.16 6.757 1.16h6.333" stroke="#323232" stroke-width="2.375"/>
    <path d="M13.458 29.292v-7.917m0 0-3.166 2.969m3.166-2.969 3.167 2.969" stroke="#323232" stroke-width="2.375" stroke-linecap="round" stroke-linejoin="round"/>
</svg>
