<svg width="14" height="14" viewBox="0 0 14 14" fill="none" xmlns="http://www.w3.org/2000/svg">
    <path fill-rule="evenodd" clip-rule="evenodd" d="M7 12.833c-2.75 0-4.125 0-4.98-.854-.854-.854-.854-2.23-.854-4.98 0-2.749 0-4.124.854-4.978.855-.854 2.23-.854 4.98-.854 2.75 0 4.124 0 4.978.854.855.854.855 2.229.855 4.979s0 4.125-.855 4.979c-.854.854-2.229.854-4.979.854zm0-8.02c.241 0 .437.195.437.437v1.312h1.312a.438.438 0 0 1 0 .875H7.437V8.75a.438.438 0 0 1-.875 0V7.437H5.249a.437.437 0 1 1 0-.875h1.313V5.25c0-.242.196-.438.437-.438z" fill="#BEDAFF"/>
</svg>
