<svg width="16" height="16" viewBox="0 0 16 16" fill="none" xmlns="http://www.w3.org/2000/svg">
    <path fill-rule="evenodd" clip-rule="evenodd" d="M3.302 1.5h9.396c.445 0 .825 0 1.129.038.322.04.633.132.889.372.26.244.364.549.41.866.04.291.04.653.04 1.066v.518c0 .326 0 .607-.024.842-.026.253-.083.49-.22.717-.136.226-.32.39-.532.537-.199.138-.454.282-.753.45l-1.962 1.105c-.446.251-.602.341-.705.432a1.288 1.288 0 0 0-.44.724c-.027.123-.03.278-.03.748v1.822c0 .6 0 1.11-.062 1.503-.065.417-.218.817-.618 1.067-.39.244-.822.222-1.24.123-.403-.096-.9-.29-1.496-.523l-.058-.023a8.043 8.043 0 0 1-.717-.305 1.467 1.467 0 0 1-.548-.449c-.15-.21-.21-.435-.237-.666-.024-.21-.024-.462-.024-.744V9.915c0-.47-.003-.625-.03-.748a1.288 1.288 0 0 0-.44-.724c-.103-.09-.259-.181-.705-.432L2.363 6.906a9.983 9.983 0 0 1-.753-.45 1.765 1.765 0 0 1-.532-.537 1.673 1.673 0 0 1-.22-.717C.833 4.967.833 4.686.833 4.36v-.518c0-.413 0-.775.042-1.066.046-.317.149-.622.41-.866.255-.24.566-.331.889-.372.303-.038.684-.038 1.128-.038zM2.3 2.53c-.223.028-.293.075-.33.11-.033.03-.076.084-.104.278-.03.212-.032.501-.032.958v.46c0 .356.001.586.02.763a.693.693 0 0 0 .082.304c.036.06.098.129.245.232.156.108.37.228.693.411l1.942 1.093.054.03c.373.21.626.353.817.518.395.343.647.758.76 1.262.054.245.054.52.054.907v1.839c0 .315 0 .508.018.654.015.132.04.176.058.202.02.029.06.072.192.14.142.073.337.15.645.27.64.25 1.072.418 1.398.496.32.075.424.036.479.002.045-.028.115-.086.16-.375.049-.305.05-.735.05-1.39V9.857c0-.387 0-.662.055-.907.112-.504.365-.92.759-1.262.191-.165.445-.308.817-.518l.054-.03 1.942-1.093a9.52 9.52 0 0 0 .693-.411c.148-.103.209-.171.246-.232a.694.694 0 0 0 .082-.304c.018-.177.019-.407.019-.763v-.46c0-.457-.001-.746-.032-.958-.027-.194-.07-.248-.103-.279-.037-.034-.108-.08-.33-.109-.234-.03-.55-.03-1.035-.03H3.333c-.484 0-.8 0-1.034.03z" fill="#323232"/>
</svg>
