<svg width="18" height="18" viewBox="0 0 18 18" fill="none" xmlns="http://www.w3.org/2000/svg">
    <g clip-path="url(#tuumgat59a)">
        <path fill-rule="evenodd" clip-rule="evenodd" d="M9 2.063a6.937 6.937 0 1 0 0 13.874A6.937 6.937 0 0 0 9 2.063zM.937 9a8.062 8.062 0 1 1 16.125 0A8.062 8.062 0 0 1 .937 9zM9 5.812a.844.844 0 0 0-.844.844.563.563 0 0 1-1.125 0 1.969 1.969 0 1 1 2.97 1.696c-.147.087-.269.182-.348.276-.077.09-.09.15-.09.184v.938a.562.562 0 1 1-1.126 0v-.938c0-.379.167-.687.358-.912.189-.223.425-.393.634-.517A.843.843 0 0 0 9 5.813zm0 6.938a.75.75 0 1 0 0-1.5.75.75 0 0 0 0 1.5z" fill="#fff"/>
    </g>
    <defs>
        <clipPath id="tuumgat59a">
            <path fill="#fff" d="M0 0h18v18H0z"/>
        </clipPath>
    </defs>
</svg>
