<svg width="48" height="48" viewBox="0 0 48 48" fill="none" xmlns="http://www.w3.org/2000/svg">
    <path fill-rule="evenodd" clip-rule="evenodd" d="M23 16.555c-3.87 0-6.56 2.303-8.25 4.498-.478.62-.708.931-.857 1.27-.13.293-.226.68-.226 1.432 0 .753.096 1.14.226 1.433.15.338.38.65.857 1.27 1.69 2.195 4.38 4.497 8.25 4.497s6.56-2.302 8.25-4.498c.478-.62.708-.93.857-1.269.13-.293.226-.68.226-1.433 0-.752-.096-1.14-.226-1.433-.15-.338-.38-.648-.857-1.269-1.69-2.195-4.38-4.498-8.25-4.498zm-10.363 2.872c1.93-2.508 5.312-5.538 10.363-5.538 5.051 0 8.433 3.03 10.363 5.538.017.02.033.042.049.063.414.537.842 1.093 1.134 1.755.324.732.454 1.514.454 2.51 0 .997-.13 1.778-.454 2.51-.292.663-.72 1.218-1.134 1.756l-.049.063c-1.93 2.508-5.312 5.538-10.363 5.538-5.051 0-8.433-3.03-10.363-5.538a26.493 26.493 0 0 0-.049-.063c-.414-.538-.842-1.093-1.134-1.755-.324-.733-.454-1.514-.454-2.51 0-.997.13-1.779.454-2.511.292-.663.72-1.218 1.134-1.755l.049-.063z" fill="#F25E3D"/>
    <path fill-rule="evenodd" clip-rule="evenodd" d="M23.004 21.888a1.867 1.867 0 1 0 0 3.734 1.867 1.867 0 0 0 0-3.734zm-4.533 1.867a4.533 4.533 0 1 1 9.066 0 4.533 4.533 0 0 1-9.066 0z" fill="#F25E3D"/>
    <circle cx="23" cy="23" r="19" stroke="#F25E3D" stroke-width="3"/>
    <path d="m37 37 7 7" stroke="#F25E3D" stroke-width="3" stroke-linecap="round"/>
</svg>
