<svg width="12" height="12" viewBox="0 0 12 12" fill="none" xmlns="http://www.w3.org/2000/svg">
<g clip-path="url(#clip0_10894_109168)">
<path d="M5.50024 8.27781L8.88915 4.8889L8.11133 4.11108L5.50024 6.72218L4.38915 5.61108L3.61133 6.3889L5.50024 8.27781Z" fill="black" fill-opacity="0.8"/>
<path fill-rule="evenodd" clip-rule="evenodd" d="M12 6C12 9.31371 9.31371 12 6 12C2.68629 12 0 9.31371 0 6C0 2.68629 2.68629 0 6 0C9.31371 0 12 2.68629 12 6ZM11 6C11 8.76142 8.76142 11 6 11C3.23858 11 1 8.76142 1 6C1 3.23858 3.23858 1 6 1C8.76142 1 11 3.23858 11 6Z" fill="black" fill-opacity="0.8"/>
</g>
<defs>
<clipPath id="clip0_10894_109168">
<rect width="12" height="12" fill="white"/>
</clipPath>
</defs>
</svg>
