<svg width="12" height="12" viewBox="0 0 12 12" fill="none" xmlns="http://www.w3.org/2000/svg">
<g clip-path="url(#clip0_10894_109148)">
<path d="M6.00005 7.5C6.82848 7.5 7.50005 6.82843 7.50005 6C7.50005 5.17157 6.82848 4.5 6.00005 4.5C5.17162 4.5 4.50005 5.17157 4.50005 6C4.50005 6.82843 5.17162 7.5 6.00005 7.5Z" fill="black" fill-opacity="0.8"/>
<path fill-rule="evenodd" clip-rule="evenodd" d="M6.00005 2C8.64841 2 10.9346 3.63506 12.0001 6C10.9346 8.36495 8.64841 10 6.00005 10C3.35169 10 1.06551 8.36495 0 6C1.06551 3.63505 3.35169 2 6.00005 2ZM6.00005 9C3.93397 9 2.10041 7.81182 1.11553 6C2.10041 4.18818 3.93397 3 6.00005 3C8.06613 3 9.89968 4.18818 10.8846 6C9.89968 7.81182 8.06613 9 6.00005 9Z" fill="black" fill-opacity="0.8"/>
</g>
<defs>
<clipPath id="clip0_10894_109148">
<rect width="12" height="12" fill="white"/>
</clipPath>
</defs>
</svg>
