<svg width="12" height="12" viewBox="0 0 12 12" fill="none" xmlns="http://www.w3.org/2000/svg">
<path fill-rule="evenodd" clip-rule="evenodd" d="M4.90625 1.5C4.90625 0.671573 5.57782 0 6.40625 0H6.5C7.32843 0 8 0.671573 8 1.5V4H9.5C10.3284 4 11 4.67157 11 5.5V9.5C11 10.3284 10.3284 11 9.5 11H1V10H3V6H1V5H4.40625C4.68239 5 4.90625 4.77614 4.90625 4.5V1.5ZM4 6V10H9.5C9.77614 10 10 9.77614 10 9.5V9H8.5V8H10V7H8.5V6H10V5.5C10 5.22386 9.77614 5 9.5 5H7V1.5C7 1.22386 6.77614 1 6.5 1H6.40625C6.13011 1 5.90625 1.22386 5.90625 1.5V4.5C5.90625 5.32843 5.23468 6 4.40625 6H4Z" fill="black" fill-opacity="0.8"/>
</svg>
