<svg width="120" height="120" viewBox="0 0 120 120" fill="none" xmlns="http://www.w3.org/2000/svg">
    <path d="M90 30.509c6.5.64 10.876 2.084 14.142 5.35C110 41.717 110 51.145 110 70.002c0 18.856 0 28.284-5.858 34.142-5.858 5.858-15.286 5.858-34.142 5.858H50c-18.856 0-28.284 0-34.142-5.858C10 98.286 10 88.858 10 70.002c0-18.857 0-28.285 5.858-34.143 3.266-3.266 7.641-4.71 14.142-5.35" stroke="#323232" stroke-width="6" stroke-linejoin="round"/>
    <path d="M50 30h20M55 45h10M40.794 58.995l-4.797-3.998c-2.949-2.457-4.424-3.686-5.21-5.365-.787-1.68-.787-3.6-.787-7.438V35c0-11.785 0-17.678 3.661-21.339C37.322 10 43.215 10 55 10h10c11.785 0 17.678 0 21.339 3.661C90 17.322 90 23.215 90 35v7.194c0 3.838 0 5.758-.787 7.438-.786 1.68-2.261 2.908-5.21 5.365h0l-4.797 3.998C70.022 66.648 65.43 70.475 60 70.475c-5.43 0-10.022-3.827-19.206-11.48z" stroke="#323232" stroke-width="6" stroke-linecap="round" stroke-linejoin="round"/>
    <path d="m30 50 10.794 8.995C49.978 66.648 54.57 70.475 60 70.475c5.43 0 10.022-3.827 19.206-11.48L90 50" stroke="#323232" stroke-width="6" stroke-linecap="round" stroke-linejoin="round"/>
</svg>
