<svg width="34" height="34" viewBox="0 0 34 34" fill="none" xmlns="http://www.w3.org/2000/svg">
    <g opacity=".6" fill="#777">
        <path d="M20.188 7.969a1.594 1.594 0 1 0 3.187 0 1.594 1.594 0 0 0-3.188 0zM20.188 17a1.594 1.594 0 1 0 3.187 0 1.594 1.594 0 0 0-3.188 0zM20.188 26.031a1.594 1.594 0 1 0 3.187 0 1.594 1.594 0 0 0-3.188 0zM10.625 7.969a1.594 1.594 0 1 0 3.187 0 1.594 1.594 0 0 0-3.187 0zM10.625 17a1.594 1.594 0 1 0 3.187 0 1.594 1.594 0 0 0-3.187 0zM10.625 26.031a1.594 1.594 0 1 0 3.187 0 1.594 1.594 0 0 0-3.187 0z"/>
    </g>
</svg>
