<svg width="18" height="18" viewBox="0 0 18 18" fill="none" xmlns="http://www.w3.org/2000/svg">
    <g clip-path="url(#k9ay4fy9ya)" stroke="#323232" stroke-width="1.5">
        <path d="M1.5 12c0-2.121 0-3.182.659-3.841C2.818 7.5 3.879 7.5 6 7.5h6c2.121 0 3.182 0 3.841.659.659.659.659 1.72.659 3.841 0 2.121 0 3.182-.659 3.841-.659.659-1.72.659-3.841.659H6c-2.121 0-3.182 0-3.841-.659C1.5 15.182 1.5 14.121 1.5 12z"/>
        <circle cx="9" cy="12" r="1.5"/>
        <path d="M4.5 7.5V6a4.5 4.5 0 0 1 9 0v1.5" stroke-linecap="round"/>
    </g>
    <defs>
        <clipPath id="k9ay4fy9ya">
            <path fill="#fff" d="M0 0h18v18H0z"/>
        </clipPath>
    </defs>
</svg>
