<svg width="219" height="29" viewBox="0 0 219 29" fill="none" xmlns="http://www.w3.org/2000/svg">
    <path d="M49 27.54h8.914c4.191 0 6.738-2.277 6.738-5.4 0-2.74-2.003-4.5-4.43-4.58v-.184c2.189-.45 3.674-2.065 3.688-4.182-.014-2.925-2.309-4.818-6.686-4.818H49V27.54zm5.04-4.05v-4.182h2.654c1.618 0 2.626.807 2.626 2.197 0 1.297-.889 1.998-2.706 1.985H54.04zm0-7.332v-3.811h2.335c1.366 0 2.335.688 2.335 1.905 0 1.218-.995 1.906-2.414 1.906H54.04zM65.386 23.57c0 2.858 1.95 4.195 4.696 4.208 1.923-.013 3.33-.688 4.192-2.25h.106v2.012h4.695v-9.82c0-2.766-2.586-4.738-6.579-4.738-4.245 0-6.367 2.21-6.553 4.817h4.643c.12-.913.81-1.35 1.83-1.35.982 0 1.632.45 1.645 1.244v1.165c-.583.026-2.281.08-3.369.132-2.931.172-5.306 1.416-5.306 4.58zm4.723-.292c.013-.78.583-1.363 1.485-1.482.663-.066 1.99-.12 2.494-.133v.768c.013 1.35-1.128 2.157-2.388 2.144-.928.013-1.578-.437-1.591-1.297zM89.44 17.8h4.616c-.146-3.005-2.64-4.818-6.739-4.818-4.059 0-6.58 1.68-6.58 4.658 0 2.237 1.46 3.68 4.378 4.209l2.52.45c1.155.212 1.672.53 1.698 1.111-.026.636-.742.993-1.75 1.006-1.208-.013-2.043-.53-2.202-1.456h-4.988c.305 2.912 2.812 4.844 7.163 4.844 3.966 0 6.844-1.932 6.871-4.976-.027-2.117-1.446-3.361-4.377-3.89l-2.865-.53c-1.141-.212-1.473-.622-1.46-1.059-.013-.635.757-1.019 1.698-1.006 1.061-.013 1.924.556 2.017 1.456zM95.904 27.54h5.014V13.167h-5.014V27.54zm0-18.237c-.013 1.283 1.114 2.316 2.494 2.302 1.366.014 2.493-1.019 2.493-2.302 0-1.27-1.127-2.303-2.493-2.303-1.38 0-2.507 1.032-2.494 2.303zM109.903 27.804c4.204 0 6.791-2.422 6.871-6.167h-4.67c-.119 1.522-.968 2.343-2.122 2.356-1.446-.013-2.374-1.231-2.388-3.653.014-2.395.956-3.613 2.388-3.6 1.181-.013 1.977.82 2.122 2.33h4.67c-.053-3.693-2.706-6.088-6.871-6.088-4.643 0-7.415 2.99-7.429 7.411.014 4.407 2.773 7.411 7.429 7.411zM134.027 14.305h4.854c-.026-3.719-2.931-6.193-7.534-6.193-4.51 0-7.72 2.435-7.693 6.06-.014 2.965 2.056 4.633 5.438 5.374l1.937.424c2.135.463 2.931 1.005 2.944 1.932-.013 1.019-.941 1.72-2.679 1.72-2.003 0-3.237-.94-3.316-2.726h-4.828c.039 4.724 3.263 6.869 8.224 6.882 4.854-.013 7.746-2.118 7.773-5.876-.027-2.951-1.871-4.95-5.996-5.823l-1.592-.37c-1.79-.371-2.692-.914-2.653-1.907.014-.886.783-1.548 2.441-1.535 1.724-.013 2.573.755 2.68 2.038zM147.548 27.804c3.939 0 6.486-1.88 6.977-4.843h-4.59c-.318.833-1.18 1.296-2.281 1.296-1.605 0-2.547-1.045-2.547-2.54v-.186h9.444v-1.19c-.013-4.62-2.838-7.36-7.109-7.36-4.444 0-7.283 2.965-7.296 7.412.013 4.645 2.812 7.411 7.402 7.411zm-2.441-9.078c.04-1.297 1.101-2.21 2.441-2.197 1.339-.014 2.347.9 2.361 2.197h-4.802zM156.134 27.54h5.014v-7.57c-.013-1.668 1.141-2.78 2.706-2.78.544 0 1.393.093 1.884.265v-4.314c-.398-.093-.862-.172-1.3-.16-1.552-.012-2.772.9-3.29 2.886h-.159v-2.7h-4.855V27.54zM181.7 13.167h-5.253l-2.441 9.608h-.132l-2.415-9.608h-5.279l4.855 14.373h5.81l4.855-14.373zM182.672 27.54h5.015V13.167h-5.015V27.54zm0-18.237c-.013 1.283 1.115 2.316 2.494 2.302 1.367.014 2.494-1.019 2.494-2.302 0-1.27-1.127-2.303-2.494-2.303-1.379 0-2.507 1.032-2.494 2.303zM196.671 27.804c4.205 0 6.792-2.422 6.871-6.167h-4.669c-.119 1.522-.968 2.343-2.122 2.356-1.446-.013-2.375-1.231-2.388-3.653.013-2.395.955-3.613 2.388-3.6 1.18-.013 1.976.82 2.122 2.33h4.669c-.053-3.693-2.706-6.088-6.871-6.088-4.642 0-7.415 2.99-7.428 7.411.013 4.407 2.772 7.411 7.428 7.411zM211.996 27.804c3.94 0 6.487-1.88 6.977-4.843h-4.589c-.318.833-1.181 1.296-2.282 1.296-1.605 0-2.546-1.045-2.546-2.54v-.186H219v-1.19c-.013-4.62-2.839-7.36-7.11-7.36-4.444 0-7.282 2.965-7.295 7.412.013 4.645 2.812 7.411 7.401 7.411zm-2.44-9.078c.039-1.297 1.101-2.21 2.44-2.197 1.34-.014 2.348.9 2.361 2.197h-4.801zM41.176 28.03h-8.008l1.481-18.91h5.07l1.457 18.91zM26.71 6.55h-5.787L0 28.029h17.336l1.366-4.097H9.79l11.202-11.526v15.623H29V6.55H26.71zM37.17 6.527a3.264 3.264 0 1 0 0-6.527 3.264 3.264 0 0 0 0 6.527z" fill="#39007A"/>
</svg>
