<svg width="18" height="18" viewBox="0 0 18 18" fill="none" xmlns="http://www.w3.org/2000/svg">
    <path d="M12 3.001c1.631.01 2.515.082 3.091.658.659.66.659 1.72.659 3.841V12c0 2.121 0 3.182-.659 3.841-.659.659-1.72.659-3.841.659h-4.5c-2.121 0-3.182 0-3.841-.659-.659-.659-.659-1.72-.659-3.841V7.5c0-2.121 0-3.182.659-3.841.576-.576 1.46-.649 3.091-.658" stroke="#fff" stroke-width="1.5"/>
    <path d="M7.875 10.5h4.875M5.25 10.5h.375M5.25 7.875h.375M5.25 13.125h.375M7.875 7.875h4.875M7.875 13.125h4.875" stroke="#fff" stroke-width="1.5" stroke-linecap="round"/>
    <path d="M6 2.625C6 2.004 6.504 1.5 7.125 1.5h3.75c.621 0 1.125.504 1.125 1.125v.75c0 .621-.504 1.125-1.125 1.125h-3.75A1.125 1.125 0 0 1 6 3.375v-.75z" stroke="#fff" stroke-width="1.5"/>
</svg>
