<svg width="34" height="34" viewBox="0 0 34 34" fill="none" xmlns="http://www.w3.org/2000/svg">
    <path fill-rule="evenodd" clip-rule="evenodd" d="M16.999 31.166c7.824 0 14.166-6.342 14.166-14.166 0-7.824-6.342-14.167-14.166-14.167C9.175 2.833 2.832 9.176 2.832 17s6.343 14.166 14.167 14.166zm1.453-18.027c-.336-.236-.716-.48-1.11-.72-1.52-.924-2.28-1.385-2.96-.874-.682.511-.744 1.582-.868 3.723-.035.606-.057 1.2-.057 1.732s.022 1.126.057 1.731c.124 2.141.186 3.212.867 3.723.682.512 1.441.05 2.96-.874.395-.24.775-.484 1.111-.72.383-.269.8-.592 1.22-.935 1.524-1.242 2.285-1.863 2.285-2.925 0-1.063-.761-1.684-2.284-2.926-.42-.343-.837-.666-1.22-.935z" fill="#323232"/>
</svg>
