<svg width="18" height="18" viewBox="0 0 18 18" fill="none" xmlns="http://www.w3.org/2000/svg">
    <g clip-path="url(#m2bhtc0bsa)" stroke="#fff" stroke-width="1.125" stroke-linecap="round">
        <path d="M12.75 6.752c1.631.009 2.515.081 3.091.658.659.659.659 1.72.659 3.84V12c0 2.122 0 3.183-.659 3.842-.659.659-1.72.659-3.841.659H6c-2.121 0-3.182 0-3.841-.66-.659-.658-.659-1.719-.659-3.84v-.75c0-2.122 0-3.182.659-3.841.576-.577 1.46-.649 3.091-.658"/>
        <path d="M9 11.25V1.5m0 0 2.25 2.625M9 1.5 6.75 4.125" stroke-linejoin="round"/>
    </g>
    <defs>
        <clipPath id="m2bhtc0bsa">
            <rect width="18" height="18" rx="3.75" fill="#fff"/>
        </clipPath>
    </defs>
</svg>
