<svg width="48px" height="48px" viewBox="0 0 48 48" fill="none" xmlns="http://www.w3.org/2000/svg">
    <rect x="2" y="2" width="44" height="44" rx="3.79" fill="#D91E50"/>
    <path d="M5 18v-5.126h2.213c.38 0 .713.07.998.208.286.138.508.337.666.598.159.26.238.572.238.936 0 .367-.082.677-.245.929-.162.252-.39.442-.684.57a2.524 2.524 0 0 1-1.023.193H5.84v-1.081h1.041c.164 0 .303-.02.418-.06a.53.53 0 0 0 .268-.198.6.6 0 0 0 .095-.353.617.617 0 0 0-.095-.358.532.532 0 0 0-.268-.205 1.148 1.148 0 0 0-.418-.068h-.49V18H5zm3.004-2.353L9.285 18H7.773l-1.251-2.353h1.482zM9.958 18v-5.126h3.695v1.121H11.35v.881h2.113v1.122H11.35v.88h2.293V18H9.958zM19.38 14.796h-1.413a.957.957 0 0 0-.08-.318.717.717 0 0 0-.175-.245.73.73 0 0 0-.268-.16 1.04 1.04 0 0 0-.358-.058c-.233 0-.431.057-.593.17a1.05 1.05 0 0 0-.365.489 2.123 2.123 0 0 0-.123.763c0 .314.042.577.125.789.085.21.208.368.368.475.16.105.353.158.578.158.129 0 .244-.016.346-.048a.81.81 0 0 0 .265-.142.74.74 0 0 0 .183-.223.894.894 0 0 0 .097-.298l1.412.01a1.912 1.912 0 0 1-.183.663 2.155 2.155 0 0 1-1.161 1.077 2.617 2.617 0 0 1-.989.172c-.47 0-.892-.1-1.266-.303a2.196 2.196 0 0 1-.884-.89c-.215-.393-.323-.873-.323-1.44 0-.57.11-1.051.33-1.442.22-.392.518-.688.892-.888a2.59 2.59 0 0 1 1.251-.303c.324 0 .622.044.894.132.272.089.51.218.716.388.205.169.37.377.495.624s.201.53.228.848z" fill="#fff"/>
    <circle cx="24" cy="16" r="6" fill="#fff"/>
</svg>

