<svg width="34" height="34" viewBox="0 0 34 34" fill="none" xmlns="http://www.w3.org/2000/svg">
    <path fill-rule="evenodd" clip-rule="evenodd" d="M17 30.421c7.411 0 13.42-6.009 13.42-13.42 0-7.413-6.009-13.422-13.42-13.422C9.586 3.58 3.577 9.588 3.577 17c0 7.412 6.009 13.421 13.421 13.421zm1.376-17.078a19.424 19.424 0 0 0-1.052-.682c-1.44-.875-2.159-1.313-2.805-.828-.645.484-.704 1.498-.82 3.527a29.038 29.038 0 0 0-.055 1.64c0 .504.02 1.067.054 1.64.117 2.03.176 3.043.822 3.528.645.484 1.365.047 2.804-.828.373-.227.734-.459 1.052-.682.363-.255.758-.561 1.156-.886 1.443-1.177 2.165-1.765 2.165-2.772 0-1.006-.722-1.595-2.165-2.771-.398-.325-.793-.631-1.156-.886z" fill="#323232"/>
</svg>
