<?xml version="1.0" encoding="UTF-8"?>
<svg xmlns="http://www.w3.org/2000/svg" xmlns:xlink="http://www.w3.org/1999/xlink" width="48px" height="48px" viewBox="0 0 48 48" version="1.1">
<g id="surface1">
<path style=" stroke:none;fill-rule:nonzero;fill:rgb(58.431373%,32.156863%,94.901961%);fill-opacity:1;" d="M 42 8.996094 L 42 28.496094 C 41.996094 30.152344 40.65625 31.496094 39 31.496094 L 21 31.496094 L 21 34.496094 C 21 35.105469 20.636719 35.652344 20.074219 35.882812 C 19.515625 36.117188 18.871094 35.988281 18.441406 35.558594 L 13.941406 31.058594 C 13.839844 30.960938 13.753906 30.84375 13.683594 30.71875 L 13.679688 30.710938 C 13.660156 30.675781 13.644531 30.640625 13.628906 30.601562 L 13.617188 30.578125 C 13.601562 30.546875 13.589844 30.511719 13.578125 30.476562 L 13.566406 30.4375 C 13.554688 30.40625 13.546875 30.371094 13.539062 30.339844 L 13.53125 30.292969 C 13.523438 30.257812 13.519531 30.222656 13.515625 30.1875 C 13.511719 30.175781 13.507812 30.160156 13.507812 30.148438 C 13.503906 30.097656 13.5 30.050781 13.5 30 L 13.5 29.984375 C 13.5 29.941406 13.503906 29.898438 13.507812 29.855469 C 13.511719 29.824219 13.515625 29.792969 13.519531 29.765625 L 13.527344 29.710938 C 13.535156 29.675781 13.542969 29.644531 13.554688 29.609375 L 13.5625 29.570312 C 13.574219 29.535156 13.585938 29.5 13.601562 29.464844 L 13.613281 29.433594 C 13.625 29.398438 13.644531 29.363281 13.660156 29.328125 L 13.675781 29.300781 C 13.695312 29.261719 13.714844 29.222656 13.738281 29.1875 L 13.746094 29.175781 C 13.808594 29.085938 13.875 29.003906 13.953125 28.929688 L 18.441406 24.441406 C 18.867188 24.011719 19.515625 23.882812 20.074219 24.117188 C 20.632812 24.347656 21 24.894531 21 25.5 L 21 28.5 L 39 28.5 L 39 9 L 18 9 L 18 10.5 C 18 11.328125 17.328125 12 16.5 12 C 15.671875 12 15 11.328125 15 10.5 L 15 9 C 15.003906 7.34375 16.34375 6.003906 18 6 L 39 6 C 40.65625 6.003906 41.996094 7.34375 42 9 Z M 31.5 35.996094 C 30.671875 35.996094 30 36.667969 30 37.496094 L 30 38.996094 L 9 38.996094 L 9 19.5 L 27 19.5 L 27 22.5 C 27 23.105469 27.367188 23.652344 27.925781 23.882812 C 28.484375 24.117188 29.132812 23.988281 29.558594 23.558594 L 34.046875 19.074219 C 34.125 19 34.191406 18.917969 34.253906 18.828125 L 34.261719 18.8125 C 34.285156 18.777344 34.304688 18.742188 34.324219 18.703125 L 34.339844 18.671875 C 34.355469 18.636719 34.375 18.605469 34.386719 18.570312 L 34.398438 18.535156 C 34.414062 18.5 34.425781 18.464844 34.4375 18.433594 L 34.449219 18.390625 L 34.472656 18.292969 L 34.480469 18.234375 L 34.492188 18.148438 C 34.496094 18.105469 34.5 18.058594 34.5 18.015625 L 34.5 18 C 34.5 17.949219 34.496094 17.898438 34.492188 17.851562 C 34.492188 17.835938 34.488281 17.824219 34.484375 17.808594 C 34.480469 17.773438 34.476562 17.738281 34.46875 17.703125 L 34.460938 17.65625 C 34.453125 17.625 34.445312 17.589844 34.433594 17.558594 L 34.421875 17.523438 C 34.410156 17.488281 34.398438 17.453125 34.382812 17.421875 L 34.371094 17.394531 C 34.355469 17.359375 34.339844 17.320312 34.320312 17.285156 L 34.316406 17.277344 C 34.246094 17.152344 34.160156 17.039062 34.058594 16.9375 L 29.558594 12.4375 C 29.132812 12.007812 28.484375 11.882812 27.925781 12.113281 C 27.367188 12.34375 27 12.890625 27 13.496094 L 27 16.496094 L 9 16.496094 C 7.34375 16.5 6 17.84375 6 19.5 L 6 39 C 6.003906 40.65625 7.34375 41.996094 9 42 L 30 42 C 31.65625 41.996094 32.996094 40.65625 33 39 L 33 37.5 C 33 36.671875 32.328125 36 31.5 36 Z M 31.5 35.996094 "/>
</g>
</svg>
