<svg width="34" height="34" viewBox="0 0 34 34" fill="none" xmlns="http://www.w3.org/2000/svg">
    <path d="m21.806 5.743-.501.557.501-.557zm5.609 5.047-.502.558.502-.558zm3.261 3.595-.685.305.685-.305zM4.493 29.507l.53-.53-.53.53zm25.014 0-.53-.53.53.53zm-9.674.91h-5.667v1.5h5.667v-1.5zM3.583 19.833v-5.666h-1.5v5.666h1.5zm26.833-.619v.62h1.5v-.62h-1.5zM21.305 6.3l5.608 5.048 1.003-1.115-5.608-5.048L21.305 6.3zm10.611 12.914c0-2.42.015-3.854-.555-5.134l-1.37.61c.41.921.425 1.972.425 4.524h1.5zm-5.003-7.866c1.897 1.707 2.668 2.421 3.078 3.342l1.37-.61c-.57-1.28-1.646-2.229-3.445-3.847l-1.003 1.114zM14.209 3.583c2.217 0 3.131.012 3.952.327l.537-1.4c-1.14-.438-2.386-.427-4.49-.427v1.5zm8.1 1.602c-1.557-1.4-2.47-2.238-3.61-2.676l-.538 1.4c.82.315 1.504.915 3.144 2.391l1.003-1.115zm-8.143 25.232c-2.692 0-4.636-.002-6.118-.201-1.46-.197-2.358-.572-3.025-1.24l-1.06 1.061c.992.993 2.26 1.447 3.886 1.665 1.604.216 3.667.215 6.317.215v-1.5zM2.083 19.833c0 2.65-.002 4.713.214 6.318.219 1.626.673 2.894 1.665 3.886l1.061-1.06c-.667-.668-1.043-1.566-1.24-3.026-.198-1.481-.2-3.425-.2-6.118h-1.5zm17.75 12.084c2.65 0 4.713.001 6.318-.215 1.626-.218 2.893-.672 3.886-1.665l-1.06-1.06c-.668.667-1.566 1.043-3.026 1.239-1.482.199-3.425.2-6.118.2v1.5zm10.583-12.084c0 2.693-.001 4.637-.2 6.118-.197 1.46-.572 2.358-1.24 3.026l1.06 1.06c.993-.992 1.447-2.26 1.666-3.886.216-1.605.214-3.668.214-6.318h-1.5zM3.583 14.167c0-2.693.002-4.637.2-6.118.197-1.46.573-2.358 1.24-3.026l-1.06-1.06c-.993.992-1.447 2.26-1.666 3.886-.216 1.604-.214 3.668-.214 6.318h1.5zM14.209 2.083c-2.665 0-4.738-.001-6.35.214-1.632.219-2.904.673-3.897 1.666l1.061 1.06c.667-.666 1.568-1.042 3.036-1.239 1.488-.2 3.443-.2 6.15-.2v-1.5z" fill="#D91E50"/>
    <path d="M18.417 3.542v3.541c0 3.34 0 5.01 1.037 6.046 1.038 1.038 2.707 1.038 6.046 1.038h5.667" stroke="#D91E50" stroke-width="1.5"/>
    <path d="m8.5 25.5 4.25-4.25m0 4.25L8.5 21.25" stroke="#D91E50" stroke-width="1.5" stroke-linecap="round"/>
</svg>
