<svg width="16" height="16" viewBox="0 0 16 16" fill="none" xmlns="http://www.w3.org/2000/svg">
    <path fill-rule="evenodd" clip-rule="evenodd" d="M4.667 1.167a.5.5 0 0 1 .5.5v.508c.441-.008.927-.008 1.462-.008h2.742c.535 0 1.021 0 1.463.008v-.508a.5.5 0 0 1 1 0v.551c.173.013.337.03.492.05.782.106 1.414.327 1.913.826.5.499.72 1.132.826 1.913a10 10 0 0 1 .071.82.5.5 0 0 1 .013.306c.018.535.018 1.142.018 1.83v1.37a.5.5 0 1 1-1 0V8c0-.57 0-1.065-.009-1.5H1.842c-.008.435-.009.93-.009 1.5v1.333c0 1.271.002 2.175.094 2.86.09.67.259 1.057.541 1.339.282.282.669.451 1.34.541.684.093 1.588.094 2.859.094h2.667a.5.5 0 0 1 0 1H6.629c-1.225 0-2.195 0-2.955-.102-.781-.105-1.414-.327-1.913-.826-.499-.499-.72-1.131-.825-1.913-.103-.76-.103-1.73-.103-2.955V7.962c0-.687 0-1.294.019-1.829a.5.5 0 0 1 .012-.306c.015-.297.038-.57.072-.82.105-.781.326-1.414.825-1.913.499-.499 1.132-.72 1.913-.825.155-.021.32-.038.493-.051v-.551a.5.5 0 0 1 .5-.5zM1.888 5.5h12.224a7.47 7.47 0 0 0-.038-.36c-.09-.67-.26-1.057-.542-1.339-.282-.282-.668-.451-1.34-.541-.684-.092-1.587-.093-2.858-.093H6.667c-1.271 0-2.175 0-2.86.093-.67.09-1.057.26-1.339.541-.282.282-.451.669-.541 1.34a7.356 7.356 0 0 0-.04.359zM12 10.5a1.5 1.5 0 1 0 0 3 1.5 1.5 0 0 0 0-3zM9.5 12a2.5 2.5 0 1 1 4.586 1.379l.934.934a.5.5 0 0 1-.707.707l-.934-.934A2.5 2.5 0 0 1 9.5 12z" fill="#1C274C"/>
</svg>
