<svg width="19" height="19" viewBox="0 0 19 19" fill="none" xmlns="http://www.w3.org/2000/svg">
    <path fill-rule="evenodd" clip-rule="evenodd" d="M9.04 6.688a2.813 2.813 0 1 0 0 5.625 2.813 2.813 0 0 0 0-5.626zM7.352 9.5a1.688 1.688 0 1 1 3.375 0 1.688 1.688 0 0 1-3.375 0z" fill="#323232"/>
    <path fill-rule="evenodd" clip-rule="evenodd" d="M9.021 1.438c-.333 0-.612 0-.84.015a2.117 2.117 0 0 0-.68.141c-.506.21-.907.611-1.117 1.117-.109.263-.138.54-.15.841a.65.65 0 0 1-.311.55.65.65 0 0 1-.631-.005c-.267-.141-.522-.254-.804-.291a2.063 2.063 0 0 0-1.525.408c-.187.144-.33.32-.462.519-.128.19-.267.43-.434.72l-.019.032c-.167.289-.306.53-.406.735a2.117 2.117 0 0 0-.218.66c-.071.543.076 1.091.409 1.525.173.226.398.39.654.55a.65.65 0 0 1 .319.545.65.65 0 0 1-.32.544c-.255.16-.48.325-.654.55-.333.435-.48.983-.408 1.526.03.233.113.445.218.66.1.205.24.446.406.735l.02.033c.166.288.305.53.433.72.133.197.275.374.462.518.434.333.983.48 1.525.408.282-.037.537-.15.804-.29a.65.65 0 0 1 .63-.005.65.65 0 0 1 .313.549c.01.3.04.578.15.841.209.506.61.907 1.116 1.116.217.09.442.126.68.142.228.015.507.015.84.015h.038c.333 0 .611 0 .84-.015.238-.016.462-.051.68-.142.506-.209.907-.61 1.116-1.116.11-.263.139-.54.15-.842a.65.65 0 0 1 .312-.548.65.65 0 0 1 .631.004c.267.141.521.254.804.291a2.063 2.063 0 0 0 1.525-.408c.187-.144.33-.32.462-.519.128-.19.267-.43.434-.72l.019-.032c.166-.289.305-.53.406-.736.105-.214.187-.426.218-.66a2.062 2.062 0 0 0-.409-1.524c-.173-.226-.398-.39-.654-.55a.65.65 0 0 1-.319-.545.65.65 0 0 1 .32-.544c.255-.16.48-.325.653-.55.333-.435.48-.983.409-1.526a2.12 2.12 0 0 0-.218-.66c-.1-.205-.24-.446-.406-.735l-.02-.033c-.166-.288-.305-.53-.433-.72a2.115 2.115 0 0 0-.462-.518 2.062 2.062 0 0 0-1.525-.408c-.283.037-.537.15-.804.29a.65.65 0 0 1-.631.005.65.65 0 0 1-.312-.549c-.011-.3-.04-.578-.15-.841a2.062 2.062 0 0 0-1.116-1.116 2.117 2.117 0 0 0-.68-.142 13.301 13.301 0 0 0-.84-.016H9.02zm-1.09 1.196c.058-.024.146-.046.326-.059.186-.012.426-.013.783-.013.357 0 .597 0 .782.013.18.013.269.035.327.059.23.095.412.278.507.507.03.073.055.186.065.453.022.595.329 1.167.873 1.481a1.775 1.775 0 0 0 1.72.016c.237-.125.347-.16.425-.17a.938.938 0 0 1 .693.186c.05.038.113.103.213.253.104.155.224.362.403.671.178.31.298.517.38.684.08.163.104.25.112.312a.937.937 0 0 1-.185.693c-.048.062-.133.14-.36.283a1.775 1.775 0 0 0-.846 1.497c0 .629.342 1.18.846 1.497.227.143.312.22.36.283a.938.938 0 0 1 .185.693c-.008.062-.032.15-.112.312-.082.167-.202.374-.38.684-.179.309-.299.516-.403.67-.1.151-.164.216-.213.254a.937.937 0 0 1-.693.186c-.078-.01-.188-.045-.425-.17a1.775 1.775 0 0 0-1.72.016 1.775 1.775 0 0 0-.873 1.48c-.01.268-.035.381-.065.454a.937.937 0 0 1-.507.507 1.034 1.034 0 0 1-.327.058c-.185.013-.425.014-.782.014-.357 0-.597 0-.783-.014a1.033 1.033 0 0 1-.326-.058.937.937 0 0 1-.507-.507c-.03-.073-.055-.186-.065-.454a1.775 1.775 0 0 0-.874-1.48 1.775 1.775 0 0 0-1.719-.016c-.237.125-.347.16-.425.17a.937.937 0 0 1-.693-.186 1.034 1.034 0 0 1-.214-.253 12.818 12.818 0 0 1-.402-.671c-.179-.31-.298-.517-.38-.684a1.035 1.035 0 0 1-.113-.312.937.937 0 0 1 .186-.693c.048-.063.133-.14.36-.283.504-.316.846-.868.846-1.497 0-.629-.342-1.18-.846-1.497-.227-.143-.312-.22-.36-.283a.938.938 0 0 1-.186-.693c.009-.062.033-.15.113-.312.082-.167.201-.375.38-.684.179-.31.299-.517.402-.67.101-.151.164-.216.214-.254a.938.938 0 0 1 .693-.186c.078.01.188.045.425.17a1.775 1.775 0 0 0 1.72-.016c.544-.314.85-.886.873-1.48.01-.268.035-.381.065-.454a.938.938 0 0 1 .507-.507z" fill="#323232"/>
</svg>
