<svg width="22" height="22" viewBox="0 0 48 48" fill="none" xmlns="http://www.w3.org/2000/svg">
    <path d="M4 23.998h28m0 0-7-6m7 6-7 6" stroke="#5D00C7" stroke-width="2" stroke-linecap="round" stroke-linejoin="round"/>
    <path d="M18.004 14c.024-4.35.217-6.706 1.754-8.243C21.515 4 24.344 4 30 4h2c5.657 0 8.486 0 10.243 1.757C44 7.515 44 10.343 44 16v16c0 5.657 0 8.485-1.757 10.243C40.486 44 37.657 44 32 44h-2c-5.656 0-8.485 0-10.242-1.757-1.537-1.537-1.73-3.893-1.754-8.243" stroke="#5D00C7" stroke-width="2" stroke-linecap="round"/>
</svg>