<svg width="22" height="22" viewBox="0 0 22 22" fill="none" xmlns="http://www.w3.org/2000/svg">
    <path d="M19.25 4.124v8.938a1.376 1.376 0 0 1-1.375 1.375h-8.25v1.375a.688.688 0 0 1-1.174.486L6.39 14.236a.688.688 0 0 1-.117-.157l-.002-.003a.666.666 0 0 1-.024-.05l-.005-.011a.689.689 0 0 1-.017-.047l-.006-.017a.71.71 0 0 1-.012-.045l-.005-.021a.687.687 0 0 1-.007-.05l-.003-.017a.696.696 0 0 1-.003-.069v-.006c0-.02 0-.04.003-.061.001-.014.004-.027.006-.04l.004-.026a.682.682 0 0 1 .01-.046l.006-.018a.685.685 0 0 1 .016-.047l.006-.016a.677.677 0 0 1 .022-.048l.006-.013a.675.675 0 0 1 .03-.051l.004-.006a.69.69 0 0 1 .094-.114l2.056-2.056a.688.688 0 0 1 1.174.486v1.375h8.25V4.123H8.25v.688a.688.688 0 1 1-1.375 0v-.688A1.377 1.377 0 0 1 8.25 2.749h9.625a1.377 1.377 0 0 1 1.375 1.375zM14.437 16.5a.687.687 0 0 0-.687.687v.688H4.125V8.937h8.25v1.375a.687.687 0 0 0 1.174.486l2.056-2.057a.688.688 0 0 0 .094-.113l.004-.006a.667.667 0 0 0 .03-.051l.006-.014a.669.669 0 0 0 .022-.047l.006-.016a.683.683 0 0 0 .016-.047l.005-.019a.7.7 0 0 0 .011-.046l.004-.025.006-.04a.684.684 0 0 0 .003-.061V8.25a.685.685 0 0 0-.003-.07l-.002-.017a.69.69 0 0 0-.008-.05l-.005-.02a.71.71 0 0 0-.012-.045l-.006-.017a.666.666 0 0 0-.017-.047l-.005-.011a.662.662 0 0 0-.024-.05l-.002-.004a.687.687 0 0 0-.117-.156L13.55 5.7a.687.687 0 0 0-1.174.487v1.375h-8.25A1.377 1.377 0 0 0 2.75 8.937v8.938a1.377 1.377 0 0 0 1.375 1.375h9.625a1.376 1.376 0 0 0 1.375-1.375v-.688a.687.687 0 0 0-.688-.687z" fill="#9552F2"/>
</svg>
