<svg width="22" height="22" viewBox="0 0 22 22" fill="none" xmlns="http://www.w3.org/2000/svg">
    <path fill-rule="evenodd" clip-rule="evenodd" d="M10.54 7.588c-1.775 0-3.008 1.056-3.782 2.062-.22.284-.325.427-.393.582-.06.134-.104.312-.104.656 0 .345.045.523.104.657.068.155.174.298.393.582.774 1.006 2.007 2.061 3.781 2.061s3.007-1.055 3.781-2.061c.22-.284.325-.427.393-.582.06-.134.104-.312.104-.657 0-.344-.044-.522-.104-.656-.068-.155-.174-.298-.393-.582-.774-1.006-2.007-2.062-3.78-2.062zM5.79 8.904c.884-1.149 2.434-2.538 4.75-2.538 2.314 0 3.864 1.389 4.749 2.538l.022.03c.19.246.386.5.52.804.149.335.208.694.208 1.15 0 .457-.06.815-.208 1.151-.134.304-.33.558-.52.805l-.022.028c-.885 1.15-2.435 2.539-4.75 2.539s-3.865-1.39-4.75-2.539a27.84 27.84 0 0 0-.022-.028c-.19-.247-.386-.501-.52-.805-.148-.336-.208-.694-.208-1.15 0-.457.06-.816.208-1.151.134-.304.33-.558.52-.805l.022-.029z" fill="#F25E3D"/>
    <path fill-rule="evenodd" clip-rule="evenodd" d="M10.539 10.033a.856.856 0 1 0 0 1.71.856.856 0 0 0 0-1.71zm-2.078.855a2.078 2.078 0 1 1 4.155 0 2.078 2.078 0 0 1-4.155 0z" fill="#F25E3D"/>
    <g clip-path="url(#iv8crdimca)" stroke="#F25E3D" stroke-width="1.737">
        <circle cx="10.544" cy="10.542" r="8.708"/>
        <path d="m16.96 16.959 3.21 3.208" stroke-linecap="round"/>
    </g>
    <defs>
        <clipPath id="iv8crdimca">
            <path fill="#fff" d="M0 0h22v22H0z"/>
        </clipPath>
    </defs>
</svg>
