<svg width="22" height="22" viewBox="0 0 22 22" fill="none" xmlns="http://www.w3.org/2000/svg">
    <rect x=".914" y=".916" width="20.167" height="20.167" rx="1.737" fill="#D91E50"/>
    <path d="M4.582 16.5v-4.7H6.61c.35 0 .654.064.916.191.261.127.465.31.61.548.146.239.218.525.218.859 0 .336-.075.62-.225.85a1.381 1.381 0 0 1-.626.524c-.268.118-.58.177-.939.177H5.353v-.992h.955c.15 0 .277-.018.383-.055a.485.485 0 0 0 .245-.18.55.55 0 0 0 .087-.324.566.566 0 0 0-.087-.329.488.488 0 0 0-.245-.188 1.053 1.053 0 0 0-.383-.062h-.45v3.68H4.582zm2.753-2.157L8.51 16.5H7.124l-1.147-2.157h1.358zM9.127 16.5v-4.7h3.387v1.028h-2.111v.808h1.936v1.028h-1.936v.808h2.102V16.5H9.127zM17.763 13.563h-1.294a.877.877 0 0 0-.074-.292.658.658 0 0 0-.16-.225.67.67 0 0 0-.246-.146.953.953 0 0 0-.328-.053.924.924 0 0 0-.544.156.963.963 0 0 0-.335.447 1.948 1.948 0 0 0-.112.7c0 .288.038.529.115.723a.92.92 0 0 0 .337.436.945.945 0 0 0 .53.145c.118 0 .223-.015.317-.044a.743.743 0 0 0 .243-.13.677.677 0 0 0 .167-.205.82.82 0 0 0 .09-.273l1.294.009a1.753 1.753 0 0 1-.168.608 1.975 1.975 0 0 1-1.064.987 2.4 2.4 0 0 1-.907.158c-.43 0-.818-.093-1.16-.278a2.013 2.013 0 0 1-.81-.817c-.198-.359-.297-.799-.297-1.319 0-.523.101-.963.303-1.322.202-.359.474-.63.817-.814a2.374 2.374 0 0 1 1.147-.278c.297 0 .57.04.82.122.249.081.468.2.656.356.188.154.34.345.454.57.115.227.184.487.209.779z" fill="#fff"/>
    <circle cx="10.996" cy="7.333" r="2.75" fill="#fff"/>
</svg>
