<svg width="22" height="22" viewBox="0 0 22 22" fill="none" xmlns="http://www.w3.org/2000/svg">
    <path fill-rule="evenodd" clip-rule="evenodd" d="M4.813 7.573v-.01h.916v.01a.458.458 0 0 1-.917 0zm.458.838c.253 0 .458.205.458.458v.022a.458.458 0 0 1-.917 0v-.022c0-.253.206-.458.459-.458zm0 1.318c.253 0 .458.205.458.458v.022a.458.458 0 0 1-.917 0v-.022c0-.253.206-.458.459-.458zm0 1.318c.253 0 .458.205.458.458v.021a.458.458 0 1 1-.917 0v-.021c0-.253.206-.459.459-.459zm0 1.317c.253 0 .458.205.458.458v.022a.458.458 0 1 1-.917 0v-.021c0-.254.206-.459.459-.459zm0 1.318c.253 0 .458.205.458.458v.022a.458.458 0 1 1-.917 0v-.022c0-.253.206-.458.459-.458zm0 1.318c.253 0 .458.205.458.458v.022a.458.458 0 0 1-.917 0v-.022c0-.253.206-.458.459-.458zm0 1.317c.253 0 .458.206.458.459v.021a.458.458 0 0 1-.917 0v-.021c0-.253.206-.459.459-.459zm.331 1.46a.457.457 0 0 0-.79.316v.011c0 .253.206.459.459.459h.01a.458.458 0 0 0 .321-.786zm.498.327c0-.253.206-.458.459-.458h.021a.458.458 0 0 1 0 .916H6.56a.458.458 0 0 1-.459-.458zm1.3 0c0-.253.204-.458.457-.458h.022a.458.458 0 0 1 0 .916h-.022a.458.458 0 0 1-.458-.458zm1.298 0c0-.253.205-.458.458-.458h.021a.458.458 0 0 1 0 .916h-.021a.458.458 0 0 1-.458-.458zm1.298 0c0-.253.205-.458.459-.458h.02a.458.458 0 1 1 0 .916h-.02a.458.458 0 0 1-.459-.458zm1.299 0c0-.253.205-.458.458-.458h.021a.458.458 0 1 1 0 .916h-.02a.458.458 0 0 1-.46-.458zm1.299 0c0-.253.205-.458.458-.458h.01v.916h-.01a.458.458 0 0 1-.458-.458zM1.375 2.063c0-.38.308-.688.688-.688h6.416c.38 0 .688.308.688.688v4.583c0 .38-.308.687-.688.687H2.063a.687.687 0 0 1-.688-.687V2.063zm.688 0v4.583h6.416V2.063H2.063z" fill="#140CF2"/>
    <path fill-rule="evenodd" clip-rule="evenodd" d="M12.832 15.354c0-.38.308-.687.688-.687h6.416c.38 0 .688.308.688.688v4.583c0 .38-.308.687-.688.687H13.52a.687.687 0 0 1-.688-.687v-4.583zm.688 0v4.584h6.416v-4.583H13.52zM4.813 11.458c0-.253.205-.458.458-.458h.01a.458.458 0 1 1 0 .917h-.01a.458.458 0 0 1-.458-.459zm1.287 0c0-.253.206-.458.459-.458h.021a.458.458 0 1 1 0 .917H6.56a.458.458 0 0 1-.459-.459zm1.3 0c0-.253.204-.458.457-.458h.022a.458.458 0 1 1 0 .917h-.022a.458.458 0 0 1-.458-.459zm1.298 0c0-.253.205-.458.458-.458h.021a.458.458 0 1 1 0 .917h-.021a.458.458 0 0 1-.458-.459zm1.298 0c0-.253.205-.458.459-.458h.02a.458.458 0 1 1 0 .917h-.02a.458.458 0 0 1-.459-.459zm1.299 0c0-.253.205-.458.458-.458h.021a.458.458 0 1 1 0 .917h-.02a.458.458 0 0 1-.46-.459zm1.299 0c0-.253.205-.458.458-.458h.01a.458.458 0 0 1 0 .917h-.01a.458.458 0 0 1-.458-.459z" fill="#140CF2"/>
    <path d="M13.52 8.02h6.416v4.584H13.52V8.02z" fill="#6580DD" fill-opacity=".5"/>
    <path fill-rule="evenodd" clip-rule="evenodd" d="M12.832 8.02c0-.38.308-.687.688-.687h6.416c.38 0 .688.308.688.688v4.583c0 .38-.308.687-.688.687H13.52a.687.687 0 0 1-.688-.687V8.02zm.688 0v4.584h6.416V8.02H13.52z" fill="#140CF2"/>
</svg>
