<svg width="34" height="34" viewBox="0 0 34 34" fill="none" xmlns="http://www.w3.org/2000/svg">
    <path fill-rule="evenodd" clip-rule="evenodd" d="M17.003 31.166c7.824 0 14.166-6.342 14.166-14.166 0-7.824-6.342-14.167-14.166-14.167C9.179 2.833 2.836 9.176 2.836 17s6.343 14.166 14.167 14.166zm-5.56-18.959c-.107.26-.107.59-.107 1.251v7.083c0 .66 0 .99.108 1.25.144.348.42.624.766.767.26.108.59.108 1.25.108.661 0 .991 0 1.251-.108.348-.143.623-.42.767-.766.108-.26.108-.59.108-1.25v-7.084c0-.66 0-.99-.108-1.25a1.417 1.417 0 0 0-.767-.767c-.26-.108-.59-.108-1.25-.108s-.99 0-1.25.108c-.348.144-.623.42-.767.766zm7.084 0c-.108.26-.108.59-.108 1.251v7.083c0 .66 0 .99.108 1.25.144.348.42.624.767.767.26.108.59.108 1.25.108s.99 0 1.25-.108c.348-.143.624-.42.767-.766.108-.26.108-.59.108-1.25v-7.084c0-.66 0-.99-.108-1.25a1.416 1.416 0 0 0-.766-.767c-.26-.108-.59-.108-1.25-.108s-.99 0-1.251.108c-.347.144-.623.42-.767.766z" fill="#323232"/>
</svg>
