<svg width="40" height="40" viewBox="0 0 40 40" fill="none" xmlns="http://www.w3.org/2000/svg">
    <g opacity=".4" fill="#056CF2">
        <path fill-rule="evenodd" clip-rule="evenodd" d="M17.52 7.384a1.25 1.25 0 0 0-.136 1.763L26.686 20l-9.302 10.853a1.25 1.25 0 1 0 1.898 1.627l10-11.667a1.25 1.25 0 0 0 0-1.627l-10-11.666a1.25 1.25 0 0 0-1.763-.136z"/>
        <path d="M10.416 8.333a1.25 1.25 0 0 1 2.2-.813l10 11.666a1.25 1.25 0 0 1 0 1.628l-10 11.666a1.25 1.25 0 0 1-2.2-.813V8.333z"/>
    </g>
</svg>
