<svg width="28" height="28" viewBox="0 0 28 28" fill="none" xmlns="http://www.w3.org/2000/svg">
    <path fill-rule="evenodd" clip-rule="evenodd" d="M6.125 9.639v-.014h1.167v.014a.583.583 0 0 1-1.167 0zm.583 1.066c.322 0 .584.261.584.583v.028a.583.583 0 1 1-1.167 0v-.028c0-.322.261-.583.583-.583zm0 1.677c.322 0 .584.261.584.583v.028a.583.583 0 1 1-1.167 0v-.028c0-.322.261-.583.583-.583zm0 1.677c.322 0 .584.261.584.584v.027a.583.583 0 1 1-1.167 0v-.027c0-.323.261-.584.583-.584zm0 1.677c.322 0 .584.261.584.584v.027a.583.583 0 0 1-1.167 0v-.027c0-.323.261-.584.583-.584zm0 1.677c.322 0 .584.261.584.584v.027a.583.583 0 0 1-1.167 0v-.027c0-.323.261-.584.583-.584zm0 1.677c.322 0 .584.262.584.584v.027a.583.583 0 1 1-1.167 0v-.027c0-.322.261-.584.583-.584zm0 1.677c.322 0 .584.262.584.584v.027a.583.583 0 1 1-1.167 0v-.027c0-.322.261-.584.583-.584zm.422 1.858a.582.582 0 0 0-1.005.403v.014c0 .322.261.583.583.583h.014a.583.583 0 0 0 .408-1zm.634.417c0-.323.261-.584.584-.584h.027a.583.583 0 0 1 0 1.167h-.027a.583.583 0 0 1-.584-.583zm1.653 0c0-.323.261-.584.583-.584h.027a.583.583 0 0 1 0 1.167H10a.583.583 0 0 1-.583-.583zm1.653 0c0-.323.261-.584.583-.584h.027a.583.583 0 0 1 0 1.167h-.027a.583.583 0 0 1-.583-.583zm1.653 0c0-.323.26-.584.583-.584h.027a.583.583 0 0 1 0 1.167h-.027a.583.583 0 0 1-.583-.583zm1.652 0c0-.323.261-.584.584-.584h.027a.583.583 0 0 1 0 1.167h-.027a.583.583 0 0 1-.584-.583zm1.653 0c0-.323.261-.584.584-.584h.013v1.167h-.014a.583.583 0 0 1-.583-.583zM1.75 2.625c0-.483.392-.875.875-.875h8.167c.483 0 .875.392.875.875v5.833a.875.875 0 0 1-.875.875H2.625a.875.875 0 0 1-.875-.875V2.625zm.875 0v5.833h8.167V2.625H2.625z" fill="#140CF2"/>
    <path fill-rule="evenodd" clip-rule="evenodd" d="M16.328 19.542c0-.483.392-.875.875-.875h8.167c.483 0 .875.392.875.875v5.833a.875.875 0 0 1-.875.875h-8.167a.875.875 0 0 1-.875-.875v-5.833zm.875 0v5.833h8.167v-5.833h-8.167zM6.125 14.583c0-.322.261-.583.583-.583h.014a.583.583 0 0 1 0 1.167h-.014a.583.583 0 0 1-.583-.584zm1.64 0c0-.322.26-.583.583-.583h.027a.583.583 0 0 1 0 1.167h-.027a.583.583 0 0 1-.584-.584zm1.652 0c0-.322.261-.583.583-.583h.027a.583.583 0 1 1 0 1.167H10a.583.583 0 0 1-.583-.584zm1.653 0c0-.322.261-.583.583-.583h.027a.583.583 0 1 1 0 1.167h-.027a.583.583 0 0 1-.583-.584zm1.653 0c0-.322.26-.583.583-.583h.027a.583.583 0 1 1 0 1.167h-.027a.583.583 0 0 1-.583-.584zm1.652 0c0-.322.261-.583.584-.583h.027a.583.583 0 0 1 0 1.167h-.027a.583.583 0 0 1-.584-.584zm1.653 0c0-.322.261-.583.584-.583h.013a.583.583 0 1 1 0 1.167h-.014a.583.583 0 0 1-.583-.584z" fill="#140CF2"/>
    <path d="M17.21 10.208h8.168v5.833H17.21v-5.833z" fill="#6580DD" fill-opacity=".5"/>
    <path fill-rule="evenodd" clip-rule="evenodd" d="M16.328 10.209c0-.483.392-.875.875-.875h8.167c.483 0 .875.392.875.875v5.833a.875.875 0 0 1-.875.875h-8.167a.875.875 0 0 1-.875-.875V10.21zm.875 0v5.833h8.167V10.21h-8.167z" fill="#140CF2"/>
</svg>
