<svg width="28" height="28" viewBox="0 0 28 28" fill="none" xmlns="http://www.w3.org/2000/svg">
    <path d="M2.328 13.999h16.333m0 0-4.083-3.5m4.084 3.5-4.084 3.5" stroke="#5D00C7" stroke-width="1.749" stroke-linecap="round" stroke-linejoin="round"/>
    <path d="M10.5 8.166c.014-2.537.127-3.911 1.023-4.808 1.025-1.025 2.675-1.025 5.975-1.025h1.167c3.3 0 4.95 0 5.975 1.025 1.025 1.025 1.025 2.675 1.025 5.975v9.333c0 3.3 0 4.95-1.025 5.975-1.026 1.025-2.675 1.025-5.975 1.025h-1.167c-3.3 0-4.95 0-5.975-1.025-.896-.896-1.009-2.27-1.023-4.808" stroke="#5D00C7" stroke-width="1.749" stroke-linecap="round"/>
</svg>
