<svg width="28" height="28" viewBox="0 0 28 28" fill="none" xmlns="http://www.w3.org/2000/svg">
    <path fill-rule="evenodd" clip-rule="evenodd" d="M13.422 9.657c-2.258 0-3.827 1.343-4.813 2.624-.278.362-.412.543-.5.74-.075.171-.132.397-.132.836 0 .439.057.665.132.836.088.197.222.379.5.74.986 1.281 2.555 2.624 4.813 2.624 2.257 0 3.827-1.343 4.813-2.624.278-.361.412-.543.5-.74.075-.171.131-.397.131-.836 0-.439-.056-.665-.132-.836-.087-.197-.221-.378-.5-.74-.985-1.28-2.555-2.624-4.812-2.624zm-6.045 1.675c1.126-1.463 3.098-3.23 6.045-3.23s4.92 1.767 6.045 3.23l.028.037c.242.313.492.637.662 1.024.189.427.265.883.265 1.464s-.076 1.037-.265 1.465c-.17.386-.42.71-.662 1.024l-.028.036c-1.126 1.463-3.098 3.23-6.045 3.23s-4.92-1.767-6.045-3.23a8.437 8.437 0 0 0-.029-.037c-.241-.313-.49-.637-.661-1.023-.19-.428-.265-.884-.265-1.465 0-.581.076-1.037.265-1.464.17-.387.42-.71.661-1.024l.029-.037z" fill="#F25E3D"/>
    <path fill-rule="evenodd" clip-rule="evenodd" d="M13.426 12.768a1.089 1.089 0 1 0 0 2.177 1.089 1.089 0 0 0 0-2.178zm-2.645 1.088a2.645 2.645 0 1 1 5.29 0 2.645 2.645 0 0 1-5.29 0z" fill="#F25E3D"/>
    <circle cx="13.419" cy="13.416" r="11.083" stroke="#F25E3D" stroke-width="1.769"/>
    <path d="m21.578 21.583 4.084 4.083" stroke="#F25E3D" stroke-width="1.769" stroke-linecap="round"/>
</svg>
