<svg width="28" height="28" viewBox="0 0 28 28" fill="none" xmlns="http://www.w3.org/2000/svg">
    <path d="M8.315 8.77a.722.722 0 1 0 0-1.445.722.722 0 0 0 0 1.445zm1.377-.722a1.377 1.377 0 1 1-2.754 0 1.377 1.377 0 0 1 2.754 0zM8.315 14.313a.722.722 0 1 0 0-1.445.722.722 0 0 0 0 1.445zm1.377-.722a1.377 1.377 0 1 1-2.754 0 1.377 1.377 0 0 1 2.754 0zM21.175 8.274a.722.722 0 1 0 0-1.445.722.722 0 0 0 0 1.445zm1.377-.722a1.377 1.377 0 1 1-2.754 0 1.377 1.377 0 0 1 2.754 0zM18.26 13.73a.722.722 0 1 0 0-1.445.722.722 0 0 0 0 1.445zm1.377-.722a1.377 1.377 0 1 1-2.753 0 1.377 1.377 0 0 1 2.753 0zM18.73 21.313a.722.722 0 1 0 0-1.445.722.722 0 0 0 0 1.445zm1.376-.722a1.377 1.377 0 1 1-2.754 0 1.377 1.377 0 0 1 2.754 0zM10.3 21.163a.722.722 0 1 0 0-1.445.722.722 0 0 0 0 1.445zm1.377-.723a1.377 1.377 0 1 1-2.754 0 1.377 1.377 0 0 1 2.754 0z" fill="#F2B705" stroke="#F2B705" stroke-width=".22"/>
    <path fill-rule="evenodd" clip-rule="evenodd" d="M10.774 8.457H9.188v-.875h2.461v2.333h2.789v.875h-3.664V8.457zM9.922 15.166h4.52v.875h-3.645v3.063h-.875v-3.938zM3.945 13.27h3.5v.875h-3.5v-.875zM13.86 6.999h6.416v.875h-6.417v-.875zM13.86 20.27h4.083v.875h-4.084v-.875z" fill="#F2B705" stroke="#F2B705" stroke-width=".22"/>
    <path fill-rule="evenodd" clip-rule="evenodd" d="M13.32 1.49c.578.242 1.07.62 1.331 1.112l.052.096v22.026l-.087.116c-.526.705-1.135 1.142-1.78 1.349a3.139 3.139 0 0 1-1.884-.006c-1.069-.323-1.992-1.138-2.464-2-1.8-.23-2.76-1.059-3.136-2.114-.31-.87-.19-1.81.041-2.52-1.567-.783-2.27-1.944-2.433-3.129-.157-1.141.193-2.254.64-3.002-.954-2.983-.72-5.206.107-6.792A5.71 5.71 0 0 1 7.051 3.83C8.214 2.04 9.828 1.28 11.29 1.178a4.506 4.506 0 0 1 2.032.312zm-1.97.56c-1.222.085-2.627.733-3.645 2.381l-.09.146-.164.046a4.837 4.837 0 0 0-2.968 2.409c-.709 1.356-.964 3.385.012 6.308l.068.204-.12.18c-.406.599-.752 1.591-.616 2.577.13.948.715 1.951 2.29 2.62l.408.172-.178.406c-.268.614-.441 1.519-.171 2.277.25.703.927 1.402 2.637 1.562l.254.024.105.233c.322.718 1.117 1.473 2.034 1.751.449.136.913.154 1.363.01.417-.134.85-.417 1.259-.927V2.928c-.155-.232-.439-.46-.845-.63a3.633 3.633 0 0 0-1.634-.247z" fill="#F2B705" stroke="#F2B705" stroke-width=".22"/>
    <path fill-rule="evenodd" clip-rule="evenodd" d="M15.21 1.49c-.577.242-1.068.62-1.33 1.112l-.051.096v22.026l.086.116c.527.705 1.135 1.142 1.78 1.349a3.139 3.139 0 0 0 1.884-.006c1.069-.323 1.992-1.138 2.464-2 1.8-.23 2.76-1.059 3.137-2.114.31-.87.19-1.81-.042-2.52 1.567-.783 2.27-1.944 2.433-3.129.157-1.141-.192-2.254-.64-3.002.954-2.983.721-5.206-.107-6.792A5.71 5.71 0 0 0 21.48 3.83c-1.162-1.789-2.777-2.55-4.238-2.651a4.506 4.506 0 0 0-2.032.312zm1.972.56c1.221.085 2.626.733 3.644 2.381l.09.146.164.046a4.837 4.837 0 0 1 2.969 2.409c.708 1.356.963 3.385-.013 6.308l-.068.204.12.18c.406.599.752 1.591.616 2.577-.13.948-.714 1.951-2.29 2.62l-.407.172.177.406c.269.614.441 1.519.171 2.277-.25.703-.927 1.402-2.637 1.562l-.254.024-.105.233c-.322.718-1.117 1.473-2.034 1.751a2.265 2.265 0 0 1-1.362.01c-.418-.134-.85-.417-1.26-.927V2.928c.155-.232.439-.46.845-.63a3.633 3.633 0 0 1 1.634-.247z" fill="#F2B705" stroke="#F2B705" stroke-width=".22"/>
    <path fill-rule="evenodd" clip-rule="evenodd" d="M17.797 13.997h.875v1.936h4.957v3.021h-.875v-2.146h-4.957v-2.81z" fill="#F2B705" stroke="#F2B705" stroke-width=".22"/>
</svg>
