<svg width="60" height="60" viewBox="0 0 60 60" fill="none" xmlns="http://www.w3.org/2000/svg">
    <path d="m38.482 10.134-1.254 1.394 1.254-1.394zm9.897 8.907-1.254 1.394 1.254-1.394zm5.756 6.344-1.713.763 1.713-.763zM7.929 52.071l1.326-1.326-1.326 1.326zm44.142 0-1.326-1.326 1.326 1.326zM35 53.125H25v3.75h10v-3.75zM6.875 35V25h-3.75v10h3.75zm46.25-1.093V35h3.75v-1.093h-3.75zm-15.897-22.38 9.897 8.908 2.509-2.787-9.897-8.908-2.509 2.788zm19.647 22.38c0-4.22.038-6.893-1.027-9.285l-3.426 1.526c.665 1.493.703 3.207.703 7.76h3.75zm-9.75-13.472c3.384 3.045 4.632 4.22 5.297 5.713l3.426-1.526c-1.065-2.391-3.077-4.15-6.214-6.974l-2.509 2.787zm-22.05-13.56c3.954 0 5.446.029 6.776.54l1.344-3.502c-2.13-.817-4.45-.788-8.12-.788v3.75zM39.736 8.74c-2.715-2.443-4.413-4.01-6.542-4.827L31.85 7.414c1.33.51 2.453 1.482 5.377 4.114l2.509-2.788zM25 53.125c-4.767 0-8.154-.004-10.723-.35-2.515-.338-3.964-.972-5.022-2.03l-2.652 2.652c1.871 1.87 4.243 2.701 7.174 3.095 2.878.387 6.562.383 11.223.383v-3.75zM3.125 35c0 4.661-.004 8.345.383 11.223.394 2.93 1.224 5.303 3.095 7.174l2.652-2.652c-1.058-1.058-1.692-2.507-2.03-5.022-.346-2.57-.35-5.956-.35-10.723h-3.75zM35 56.875c4.661 0 8.345.004 11.223-.383 2.93-.394 5.303-1.224 7.174-3.095l-2.652-2.652c-1.058 1.058-2.507 1.692-5.022 2.03-2.57.346-5.956.35-10.723.35v3.75zM53.125 35c0 4.767-.004 8.154-.35 10.723-.338 2.515-.972 3.964-2.03 5.022l2.652 2.652c1.87-1.871 2.701-4.243 3.095-7.174.387-2.878.383-6.562.383-11.223h-3.75zM6.875 25c0-4.767.004-8.154.35-10.723.338-2.515.972-3.964 2.03-5.022L6.603 6.603c-1.87 1.871-2.701 4.243-3.095 7.174C3.12 16.655 3.125 20.34 3.125 25h3.75zm18.2-21.875c-4.687 0-8.389-.004-11.278.383-2.941.393-5.322 1.223-7.194 3.095l2.652 2.652c1.056-1.057 2.51-1.692 5.04-2.03 2.582-.346 5.988-.35 10.78-.35v-3.75z" fill="#7500FA"/>
    <path d="M32.5 6.25v6.25c0 5.893 0 8.839 1.83 10.67C36.162 25 39.108 25 45 25h10" stroke="#7500FA" stroke-width="3.75"/>
    <path d="M18.125 47.5a1.875 1.875 0 0 0 3.75 0h-3.75zm7.5-14.5a1.875 1.875 0 0 0 3.75 0h-3.75zm-15 0a1.875 1.875 0 0 0 3.75 0h-3.75zm16.326-4.85 1.433-1.208-1.433 1.209zM15.312 45.626a1.875 1.875 0 0 0 0 3.75v-3.75zm10.313 3.75a1.875 1.875 0 0 0 0-3.75v3.75zm-9.375-20H20v-3.75h-3.75v3.75zm3.75 0h3.75v-3.75H20v3.75zM21.875 47.5v-20h-3.75v20h3.75zm3.75-15.556V33h3.75v-1.056h-3.75zm-15 0V33h3.75v-1.056h-3.75zm13.125-2.569c.946 0 1.433.006 1.762.058.238.038.116.058.006-.073l2.866-2.418c-.66-.782-1.498-1.087-2.282-1.212-.692-.11-1.53-.105-2.352-.105v3.75zm5.625 2.57c0-1.003.003-1.915-.08-2.65-.087-.762-.29-1.617-.911-2.353l-2.866 2.418c-.072-.085 0-.091.05.357.054.475.057 1.135.057 2.227h3.75zm-13.125-6.32c-.821 0-1.66-.006-2.352.105-.784.125-1.622.43-2.282 1.212l2.866 2.418c-.11.131-.232.11.006.073.329-.052.816-.058 1.762-.058v-3.75zm-1.875 6.32c0-1.093.003-1.753.057-2.228.05-.448.122-.442.05-.357l-2.866-2.418c-.62.736-.824 1.591-.91 2.353-.084.735-.081 1.647-.081 2.65h3.75zm.938 17.43h10.312v-3.75H15.312v3.75z" fill="#7500FA"/>
</svg>
