<svg width="60" height="60" viewBox="0 0 60 60" fill="none" xmlns="http://www.w3.org/2000/svg">
    <path d="M5 45.283V14.715c0-4.255 0-6.383 1.356-7.08 1.356-.698 3.087.538 6.55 3.012l3.953 2.823c1.54 1.1 2.31 1.65 2.725 2.458.416.807.416 1.753.416 3.645v20.852c0 1.893 0 2.839-.416 3.646-.415.808-1.185 1.358-2.725 2.458l-3.953 2.823c-3.463 2.474-5.194 3.71-6.55 3.012C5 51.667 5 49.54 5 45.284zM55 45.283V14.715c0-4.255 0-6.383-1.356-7.08-1.356-.698-3.087.538-6.55 3.012L43.14 13.47c-1.54 1.1-2.31 1.65-2.725 2.458C40 16.735 40 17.68 40 19.573v20.852c0 1.893 0 2.839.416 3.646.415.808 1.185 1.358 2.725 2.458l3.953 2.823c3.462 2.474 5.194 3.71 6.55 3.012C55 51.667 55 49.54 55 45.284z" stroke="#7500FA" stroke-width="3.75"/>
    <path d="M30 35V25M30 15V5M30 55V45" stroke="#7500FA" stroke-width="3.75" stroke-linecap="round"/>
</svg>
