<svg width="18" height="18" viewBox="0 0 18 18" fill="none" xmlns="http://www.w3.org/2000/svg">
    <g stroke="#fff" stroke-width="1.5">
        <path d="M1.5 13.125c0-.701 0-1.051.15-1.313.1-.17.241-.313.413-.411.26-.151.611-.151 1.312-.151.701 0 1.051 0 1.313.15.17.1.313.242.411.412.151.262.151.612.151 1.313s0 1.051-.15 1.313c-.1.17-.241.313-.412.411C4.425 15 4.075 15 3.375 15s-1.051 0-1.313-.15a1.126 1.126 0 0 1-.411-.412c-.151-.262-.151-.612-.151-1.313zM7.125 13.125c0-.701 0-1.051.15-1.313.1-.17.241-.313.412-.411.262-.151.612-.151 1.313-.151s1.051 0 1.313.15c.17.1.313.242.411.412.151.262.151.612.151 1.313s0 1.051-.15 1.313c-.1.17-.242.313-.412.411C10.05 15 9.7 15 9 15s-1.051 0-1.313-.15a1.126 1.126 0 0 1-.411-.412c-.151-.262-.151-.612-.151-1.313zM12.75 13.125c0-.701 0-1.051.15-1.313.1-.17.242-.313.412-.411.262-.151.612-.151 1.313-.151s1.051 0 1.313.15c.17.1.312.242.411.412.151.262.151.612.151 1.313s0 1.051-.15 1.313c-.1.17-.242.313-.413.411-.26.151-.611.151-1.312.151-.701 0-1.051 0-1.313-.15a1.126 1.126 0 0 1-.411-.412c-.151-.262-.151-.612-.151-1.313z"/>
        <path d="M3.375 11.25v-4.5c0-1.768 0-2.652.55-3.2C4.472 3 5.356 3 7.124 3h3.75c1.768 0 2.652 0 3.2.55.55.548.55 1.432.55 3.2V9m0 0 1.5-1.5m-1.5 1.5-1.5-1.5" stroke-linecap="round" stroke-linejoin="round"/>
    </g>
</svg>
