<svg width="60" height="60" viewBox="0 0 60 60" fill="none" xmlns="http://www.w3.org/2000/svg">
    <path d="M16.875 10.575c-1.6-5.197-8.716-6.684-12.567-6.815a.544.544 0 0 0-.558.551v51.378c0 .31.251.561.561.561h4.128A.56.56 0 0 0 9 55.69v-3.115c0-1.201 1.908-3.133 2.996-4.07.1-.085.226-.13.357-.13h1.897c4.615-.385 6.94-4.613 7.703-7.204.101-.343-.156-.744-.496-.852-.659-.21-1.856-.625-3.855-1.371-.582-.218-.524-1.727.06-1.94 1.398-.514 2.994-1.151 4.119-1.615a.557.557 0 0 0 .344-.517V32.82c0-.365.358-.647.71-.741 1.486-.398 3.31-2.761 4.302-4.318a.548.548 0 0 0-.094-.695l-7.411-6.917a.572.572 0 0 1-.169-.299c-.23-1.07-1.006-4.132-2.588-9.274z" fill="#7500FA"/>
    <path d="M25.275 37.875h6.446c.229 0 .435.14.52.352l4.525 11.31a.561.561 0 0 0 1.056-.04l7.42-23.65a.561.561 0 0 1 1.065-.015l4.038 11.665a.561.561 0 0 0 .53.378h4.85" stroke="#7500FA" stroke-width="3.75" stroke-linecap="round" stroke-linejoin="round"/>
</svg>
