<svg width="20" height="20" viewBox="0 0 20 20" fill="none" xmlns="http://www.w3.org/2000/svg">
    <path d="M14.172 7.502c1.812.01 2.794.09 3.434.73.732.733.732 1.912.732 4.269v.833c0 2.357 0 3.535-.732 4.268-.732.732-1.91.732-4.268.732H6.672c-2.357 0-3.536 0-4.268-.732-.732-.733-.732-1.911-.732-4.268V12.5c0-2.357 0-3.536.732-4.268.64-.64 1.622-.721 3.435-.731" stroke="#323232" stroke-width="1.27" stroke-linecap="round"/>
    <path d="M10 1.668v10.833m0 0L7.5 9.585M10 12.5l2.5-2.916" stroke="#323232" stroke-width="1.27" stroke-linecap="round" stroke-linejoin="round"/>
</svg>
