<svg width="60" height="60" viewBox="0 0 60 60" fill="none" xmlns="http://www.w3.org/2000/svg">
    <path fill-rule="evenodd" clip-rule="evenodd" d="M7.137 7.1v25.43h25.359V7.1H7.137zm-.272-4.6c-2.41 0-4.363 1.938-4.363 4.329V32.8c0 2.39 1.953 4.328 4.363 4.328h25.904c2.409 0 4.362-1.938 4.362-4.328V6.829c0-2.391-1.953-4.329-4.362-4.329H6.865z" fill="#7500FA"/>
    <path fill-rule="evenodd" clip-rule="evenodd" d="M20.325 14.469h7.012v2.157h-2.16c-.01 1.993-.237 4.958-2.109 7.41a8.958 8.958 0 0 1-2.008 1.917c.494.07 1.011.108 1.553.108v2.157c-1.689 0-3.2-.308-4.522-.821-1.786.578-3.987.882-6.689.82l.05-2.156c1.468.034 2.742-.049 3.849-.22-.343-.26-.664-.534-.963-.818-1.843-1.752-2.913-3.97-2.913-5.702h2.156c0 .965.682 2.655 2.243 4.139a9.258 9.258 0 0 0 2.338 1.617c1.505-.615 2.51-1.456 3.192-2.35 1.421-1.862 1.655-4.208 1.666-6.101H11.565v-2.157h6.603v-3.506h2.157v3.506zM14.12 39.81l-2.44-2.427-2.44 2.426v9.502l2.446 2.36H23.53V46.95h-9.397v-7.14h-.012z" fill="#7500FA"/>
    <path fill-rule="evenodd" clip-rule="evenodd" d="M27.238 23.888c-2.41 0-4.363 1.938-4.363 4.329v25.972c0 2.39 1.953 4.328 4.363 4.328h25.904c2.41 0 4.362-1.938 4.362-4.328V28.217c0-2.39-1.953-4.329-4.362-4.329H27.238zM31.6 50.23h4.822l.95-3.126h5.428l.951 3.126h4.822L43.141 33.9h-6.108L31.6 50.228zm10.19-6.443-1.64-5.39h-.128l-1.64 5.39h3.409z" fill="#7500FA"/>
</svg>
