<svg width="28" height="28" viewBox="0 0 28 28" fill="none" xmlns="http://www.w3.org/2000/svg">
    <rect x="1.164" y="1.166" width="25.667" height="25.667" rx="2.205" fill="#D91E50"/>
    <path d="M5.836 21v-5.98h2.581c.444 0 .833.08 1.166.242.333.161.591.394.777.698.184.303.277.667.277 1.092 0 .428-.096.79-.286 1.083a1.758 1.758 0 0 1-.798.666c-.34.15-.738.225-1.194.225H6.817v-1.262h1.215c.19 0 .353-.023.488-.07a.617.617 0 0 0 .312-.23.7.7 0 0 0 .111-.412.72.72 0 0 0-.11-.418.62.62 0 0 0-.313-.24 1.342 1.342 0 0 0-.488-.078H7.46V21H5.836zm3.504-2.745L10.835 21H9.072l-1.46-2.745H9.34zM11.62 21v-5.98h4.311v1.308h-2.687v1.027h2.465v1.309h-2.465v1.028h2.675V21h-4.298zM22.612 17.262h-1.647a1.118 1.118 0 0 0-.094-.37.836.836 0 0 0-.204-.287.852.852 0 0 0-.313-.187 1.211 1.211 0 0 0-.417-.067c-.273 0-.504.066-.693.198a1.224 1.224 0 0 0-.426.57 2.476 2.476 0 0 0-.143.89c0 .367.049.673.146.92.1.246.242.43.43.555.186.123.411.184.674.184.15 0 .284-.018.403-.055a.946.946 0 0 0 .31-.166.863.863 0 0 0 .213-.26c.056-.104.094-.22.114-.348l1.647.012a2.23 2.23 0 0 1-.214.774 2.515 2.515 0 0 1-1.355 1.255 3.05 3.05 0 0 1-1.153.202 3.06 3.06 0 0 1-1.478-.354 2.562 2.562 0 0 1-1.03-1.04c-.252-.457-.377-1.016-.377-1.678 0-.666.128-1.227.385-1.682a2.574 2.574 0 0 1 1.04-1.037 3.022 3.022 0 0 1 1.46-.354c.378 0 .725.052 1.043.155.317.103.595.254.835.453.24.197.432.439.578.727.146.288.235.618.266.99z" fill="#fff"/>
    <circle cx="14.008" cy="9.333" r="3.5" fill="#fff"/>
</svg>
