<?xml version="1.0" encoding="UTF-8"?>
<svg xmlns="http://www.w3.org/2000/svg" xmlns:xlink="http://www.w3.org/1999/xlink" width="48px" height="48px" viewBox="0 0 48 48" version="1.1">
<g id="surface1">
<path style=" stroke:none;fill-rule:nonzero;fill:rgb(85.098039%,11.764706%,31.372549%);fill-opacity:1;" d="M 5.789062 2 L 42.210938 2 C 44.304688 2 46 3.695312 46 5.789062 L 46 42.210938 C 46 44.300781 44.304688 46 42.210938 46 L 5.789062 46 C 3.699219 46 2 44.300781 2 42.210938 L 2 5.789062 C 2 3.695312 3.699219 2 5.789062 2 Z M 5.789062 2 "/>
<path style=" stroke:none;fill-rule:nonzero;fill:rgb(100%,100%,100%);fill-opacity:1;" d="M 10 36 L 10 25.746094 L 14.425781 25.746094 C 15.1875 25.746094 15.851562 25.886719 16.421875 26.164062 C 16.992188 26.441406 17.4375 26.839844 17.753906 27.359375 C 18.070312 27.878906 18.230469 28.503906 18.230469 29.230469 C 18.230469 29.964844 18.066406 30.585938 17.738281 31.085938 C 17.414062 31.59375 16.960938 31.972656 16.371094 32.230469 C 15.789062 32.488281 15.105469 32.617188 14.324219 32.617188 L 11.679688 32.617188 L 11.679688 30.453125 L 13.761719 30.453125 C 14.089844 30.453125 14.367188 30.414062 14.597656 30.332031 C 14.816406 30.261719 15.003906 30.121094 15.132812 29.9375 C 15.261719 29.757812 15.324219 29.519531 15.324219 29.230469 C 15.324219 28.9375 15.261719 28.699219 15.132812 28.515625 C 15.003906 28.324219 14.816406 28.179688 14.597656 28.105469 C 14.332031 28.007812 14.046875 27.964844 13.761719 27.96875 L 12.78125 27.96875 L 12.78125 36 Z M 16.007812 31.292969 L 18.570312 36 L 15.546875 36 L 13.042969 31.292969 Z M 19.917969 36 L 19.917969 25.746094 L 27.304688 25.746094 L 27.304688 27.992188 L 22.699219 27.992188 L 22.699219 29.753906 L 26.925781 29.753906 L 26.925781 31.996094 L 22.699219 31.996094 L 22.699219 33.757812 L 27.285156 33.757812 L 27.285156 36 Z M 38.757812 29.59375 L 35.933594 29.59375 C 35.917969 29.371094 35.863281 29.15625 35.773438 28.957031 C 35.691406 28.769531 35.574219 28.601562 35.425781 28.464844 C 35.269531 28.320312 35.085938 28.210938 34.886719 28.144531 C 34.65625 28.066406 34.414062 28.027344 34.171875 28.03125 C 33.703125 28.03125 33.308594 28.144531 32.984375 28.371094 C 32.664062 28.597656 32.421875 28.921875 32.253906 29.347656 C 32.089844 29.769531 32.007812 30.277344 32.007812 30.871094 C 32.007812 31.5 32.09375 32.027344 32.261719 32.449219 C 32.429688 32.871094 32.675781 33.1875 32.996094 33.402344 C 33.316406 33.613281 33.703125 33.71875 34.152344 33.71875 C 34.410156 33.71875 34.640625 33.683594 34.84375 33.621094 C 35.046875 33.554688 35.222656 33.460938 35.375 33.335938 C 35.523438 33.214844 35.644531 33.0625 35.738281 32.890625 C 35.835938 32.714844 35.898438 32.515625 35.933594 32.296875 L 38.757812 32.316406 C 38.714844 32.777344 38.59375 33.226562 38.390625 33.640625 C 38.167969 34.105469 37.867188 34.527344 37.496094 34.882812 C 37.113281 35.261719 36.636719 35.5625 36.066406 35.792969 C 35.503906 36.023438 34.84375 36.140625 34.089844 36.140625 C 33.148438 36.140625 32.304688 35.9375 31.558594 35.535156 C 30.808594 35.125 30.195312 34.507812 29.789062 33.753906 C 29.359375 32.96875 29.144531 32.007812 29.144531 30.871094 C 29.144531 29.730469 29.367188 28.769531 29.808594 27.992188 C 30.246094 27.207031 30.839844 26.613281 31.585938 26.214844 C 32.359375 25.804688 33.21875 25.59375 34.089844 25.605469 C 34.738281 25.605469 35.335938 25.695312 35.878906 25.871094 C 36.421875 26.050781 36.902344 26.308594 37.3125 26.648438 C 37.722656 26.984375 38.050781 27.402344 38.300781 27.894531 C 38.550781 28.386719 38.703125 28.957031 38.757812 29.59375 Z M 38.757812 29.59375 "/>
<path style=" stroke:none;fill-rule:nonzero;fill:rgb(100%,100%,100%);fill-opacity:1;" d="M 30 16 C 30 19.3125 27.3125 22 24 22 C 20.6875 22 18 19.3125 18 16 C 18 12.683594 20.6875 10 24 10 C 27.3125 10 30 12.683594 30 16 Z M 30 16 "/>
</g>
</svg>
