<svg width="24" height="24" viewBox="0 0 24 24" fill="none" xmlns="http://www.w3.org/2000/svg">
    <path d="M21 4.499v9.75a1.502 1.502 0 0 1-1.5 1.5h-9v1.5a.75.75 0 0 1-1.28.531l-2.25-2.25a.748.748 0 0 1-.128-.17l-.002-.004a.742.742 0 0 1-.026-.055l-.006-.012a.72.72 0 0 1-.018-.05l-.007-.02a.762.762 0 0 1-.013-.05l-.005-.022a.762.762 0 0 1-.008-.053c-.001-.007-.003-.013-.003-.02A.756.756 0 0 1 6.75 15v-.007c0-.022.002-.044.004-.066.001-.015.004-.03.006-.044l.004-.028a.747.747 0 0 1 .013-.05l.005-.02a.77.77 0 0 1 .018-.052l.006-.017a.747.747 0 0 1 .024-.052l.007-.014a.76.76 0 0 1 .033-.056l.004-.007a.752.752 0 0 1 .102-.123l2.244-2.244a.75.75 0 0 1 1.28.53v1.5h9v-9.75H9v.75a.75.75 0 1 1-1.5 0v-.75a1.502 1.502 0 0 1 1.5-1.5h10.5a1.502 1.502 0 0 1 1.5 1.5zm-5.25 13.5a.75.75 0 0 0-.75.75v.75H4.5V9.75h9v1.5a.75.75 0 0 0 1.28.53l2.244-2.243a.753.753 0 0 0 .102-.123l.004-.007a.738.738 0 0 0 .033-.056l.007-.015a.691.691 0 0 0 .024-.051l.006-.018a.8.8 0 0 0 .018-.051l.006-.02.012-.05.004-.028.006-.044a.77.77 0 0 0 .004-.066V9a.75.75 0 0 0-.004-.075c0-.007-.002-.013-.003-.02a.757.757 0 0 0-.008-.054l-.005-.022a.708.708 0 0 0-.013-.05l-.007-.018a.685.685 0 0 0-.018-.051l-.006-.012a.736.736 0 0 0-.026-.055l-.002-.004a.749.749 0 0 0-.128-.17l-2.25-2.25a.75.75 0 0 0-1.28.53v1.5h-9A1.502 1.502 0 0 0 3 9.75v9.75A1.502 1.502 0 0 0 4.5 21H15a1.502 1.502 0 0 0 1.5-1.5v-.75a.75.75 0 0 0-.75-.75z" fill="#9552F2"/>
</svg>
