<svg width="28" height="28" viewBox="0 0 28 28" fill="none" xmlns="http://www.w3.org/2000/svg">
    <path d="M24.5 5.25v11.375a1.752 1.752 0 0 1-1.75 1.75h-10.5v1.75a.875.875 0 0 1-1.494.62l-2.625-2.626a.874.874 0 0 1-.148-.199l-.003-.003a.867.867 0 0 1-.03-.065l-.007-.014a.871.871 0 0 1-.022-.059l-.008-.022a.879.879 0 0 1-.014-.058l-.007-.026a.872.872 0 0 1-.01-.063l-.003-.022a.882.882 0 0 1-.004-.088v-.008c0-.026.002-.052.004-.077l.008-.051.005-.033a.87.87 0 0 1 .014-.059l.006-.023a.85.85 0 0 1 .021-.06l.007-.02a.871.871 0 0 1 .028-.06l.008-.018a.875.875 0 0 1 .039-.065l.005-.008a.874.874 0 0 1 .12-.144l2.616-2.617a.874.874 0 0 1 1.494.619v1.749h10.5V5.25H10.5v.875a.875.875 0 0 1-1.75 0V5.25A1.752 1.752 0 0 1 10.5 3.5h12.25a1.752 1.752 0 0 1 1.75 1.75zM18.375 21a.875.875 0 0 0-.875.876v.875H5.25V11.376h10.5v1.749a.874.874 0 0 0 1.494.619l2.617-2.617a.877.877 0 0 0 .12-.145l.004-.008a.851.851 0 0 0 .038-.065l.009-.017c.01-.02.02-.04.028-.06l.007-.02a.878.878 0 0 0 .021-.06l.006-.024a.86.86 0 0 0 .014-.058l.005-.033.008-.05a.907.907 0 0 0 .004-.078V10.5a.88.88 0 0 0-.004-.088l-.004-.023a.835.835 0 0 0-.01-.062c-.001-.01-.004-.018-.006-.027a.901.901 0 0 0-.014-.057l-.008-.022a.951.951 0 0 0-.022-.06l-.006-.013a.886.886 0 0 0-.031-.065l-.003-.003a.876.876 0 0 0-.148-.2l-2.625-2.625a.875.875 0 0 0-1.494.619v1.75H5.25a1.752 1.752 0 0 0-1.75 1.75v11.376a1.752 1.752 0 0 0 1.75 1.75H17.5a1.752 1.752 0 0 0 1.75-1.75v-.875a.875.875 0 0 0-.875-.875z" fill="#9552F2"/>
</svg>
