<svg width="28" height="28" viewBox="0 0 28 28" fill="none" xmlns="http://www.w3.org/2000/svg">
    <path d="M19.828 10.502c2.538.014 3.912.127 4.808 1.023 1.026 1.025 1.026 2.675 1.026 5.975v1.167c0 3.3 0 4.95-1.026 5.974-1.025 1.026-2.675 1.026-5.974 1.026H9.328c-3.3 0-4.95 0-5.975-1.026-1.025-1.025-1.025-2.675-1.025-5.974V17.5c0-3.3 0-4.95 1.025-5.975.897-.896 2.27-1.009 4.808-1.023" stroke="#056CF2" stroke-width="1.85" stroke-linecap="round"/>
    <path d="M14 17.5V2.333m0 0 3.5 4.084M14 2.333l-3.5 4.084" stroke="#056CF2" stroke-width="1.85" stroke-linecap="round" stroke-linejoin="round"/>
</svg>
