<svg width="26" height="26" viewBox="0 0 26 26" fill="none" xmlns="http://www.w3.org/2000/svg">
    <g clip-path="url(#8jd2aulf0a)">
        <path d="M24.271 26c.951 0 1.73-.766 1.73-1.703V6.923c0-.938-.779-1.704-1.73-1.704H7.39L14.164 26h10.107z" fill="#DBDBDB"/>
        <path d="M24.271 6c.253 0 .493.1.672.277a.903.903 0 0 1 .276.646v17.374a.893.893 0 0 1-.276.646.955.955 0 0 1-.672.276h-9.539L8.465 6H24.27zm0-.78H7.39L14.164 26h10.107c.951 0 1.73-.766 1.73-1.703V6.923c0-.938-.779-1.704-1.73-1.704z" fill="#DCDCDC"/>
        <path d="M12.565 21.09 14.164 26l4.446-4.91h-6.045z" fill="#4352B8"/>
        <path d="M24.384 12.4V11.38h-4.91V9.735H17.88v1.646h-3.134V12.4h6.236c-.333 1.174-1.07 2.284-1.79 3.146-1.273-1.508-1.278-1.998-1.278-1.998H16.59s.055.735 1.842 2.829c-.58.594-1.021.945-1.021.945l.406 1.271s.615-.529 1.384-1.344a56.927 56.927 0 0 0 3.053 3.04l.836-.837c-1.378-1.25-2.389-2.242-3.131-3.039.995-1.177 2.005-2.659 2.219-4.016h2.204v.003h.002z" fill="#607988"/>
        <path d="M1.73 0C.779 0 0 .779 0 1.732v17.632c0 .95.779 1.73 1.73 1.73h16.882L11.837 0H1.73z" fill="#4285F4"/>
        <path d="M13.918 5.22H24.27c.95 0 1.73.765 1.73 1.703v10.423L13.918 5.219z" fill="url(#ful0p8ly6b)"/>
        <path d="M9.675 11.215c-.065.789-.74 1.958-2.373 1.958-1.414 0-2.56-1.17-2.56-2.61s1.146-2.61 2.56-2.61c.805 0 1.342.35 1.649.634l1.073-1.032a3.935 3.935 0 0 0-2.722-1.057 4.065 4.065 0 0 0-4.064 4.063 4.065 4.065 0 0 0 4.064 4.063c2.35 0 3.902-1.649 3.902-3.975 0-.333-.042-.578-.096-.828H7.305v1.391l2.37.003z" fill="#EEE"/>
        <path d="M24.27 5.22H13.515L11.837 0H1.73C.779 0 0 .779 0 1.732v17.632c0 .95.779 1.73 1.73 1.73h10.834l1.6 4.906H24.27c.951 0 1.73-.766 1.73-1.703V6.923c0-.938-.779-1.704-1.73-1.704z" fill="url(#d7tpca3u8c)"/>
    </g>
    <defs>
        <radialGradient id="d7tpca3u8c" cx="0" cy="0" r="1" gradientUnits="userSpaceOnUse" gradientTransform="matrix(36.4243 0 0 36.417 1.699 .504)">
            <stop stop-color="#fff" stop-opacity=".1"/>
            <stop offset="1" stop-color="#fff" stop-opacity="0"/>
        </radialGradient>
        <linearGradient id="ful0p8ly6b" x1="13.918" y1="11.282" x2="26" y2="11.282" gradientUnits="userSpaceOnUse">
            <stop stop-color="#fff" stop-opacity=".2"/>
            <stop offset="1" stop-color="#fff" stop-opacity=".02"/>
        </linearGradient>
        <clipPath id="8jd2aulf0a">
            <path fill="#fff" d="M0 0h26v26H0z"/>
        </clipPath>
    </defs>
</svg>
