<svg width="48" height="48" viewBox="0 0 48 48" fill="none" xmlns="http://www.w3.org/2000/svg">
    <path fill-rule="evenodd" clip-rule="evenodd" d="M5.708 5.68v20.344h20.287V5.68H5.708zM5.49 2C3.563 2 2 3.55 2 5.463V26.24c0 1.913 1.563 3.463 3.49 3.463h20.723c1.928 0 3.49-1.55 3.49-3.462V5.463C29.703 3.55 28.141 2 26.213 2H5.49z" fill="#F2B705"/>
    <path fill-rule="evenodd" clip-rule="evenodd" d="M16.257 11.575h5.609V13.3h-1.728c-.007 1.595-.189 3.967-1.686 5.929a7.166 7.166 0 0 1-1.607 1.533c.395.057.81.087 1.244.087v1.725a9.948 9.948 0 0 1-3.618-.657c-1.43.463-3.19.706-5.352.657l.04-1.725c1.174.026 2.194-.04 3.08-.177a9.058 9.058 0 0 1-.77-.654c-1.475-1.401-2.331-3.176-2.331-4.561h1.725c0 .772.546 2.124 1.794 3.31.516.49 1.14.94 1.87 1.294 1.204-.491 2.008-1.165 2.553-1.88 1.138-1.489 1.325-3.366 1.333-4.88H9.248v-1.726h5.283V8.77h1.726v2.804zM11.296 31.848l-1.951-1.941-1.952 1.94v7.602l1.956 1.889h9.475V37.56h-7.518v-5.713h-.01z" fill="#F2B705"/>
    <path fill-rule="evenodd" clip-rule="evenodd" d="M21.787 19.11c-1.927 0-3.49 1.551-3.49 3.464V43.35c0 1.913 1.563 3.463 3.49 3.463H42.51c1.928 0 3.49-1.55 3.49-3.463V22.574c0-1.913-1.562-3.463-3.49-3.463H21.787zm3.49 21.074h3.858l.76-2.501h4.343l.76 2.5h3.858L34.51 27.12h-4.886l-4.347 13.065zm8.153-5.155-1.312-4.312h-.103l-1.312 4.312h2.727z" fill="#F2B705"/>
</svg>
