<svg width="18" height="18" viewBox="0 0 18 18" fill="none" xmlns="http://www.w3.org/2000/svg">
    <path fill-rule="evenodd" clip-rule="evenodd" d="M2.14 2.13v7.629h7.608v-7.63H2.141zM2.06.75C1.336.75.75 1.331.75 2.049V9.84c0 .717.586 1.299 1.309 1.299H9.83c.723 0 1.309-.582 1.309-1.299V2.05c0-.718-.586-1.299-1.309-1.299H2.059z" fill="#7500FA"/>
    <path fill-rule="evenodd" clip-rule="evenodd" d="M6.097 4.34H8.2v.647h-.648c-.003.599-.07 1.488-.632 2.224a2.688 2.688 0 0 1-.603.575c.148.02.303.032.466.032v.647a3.73 3.73 0 0 1-1.357-.246c-.535.173-1.196.264-2.006.246l.015-.647c.44.01.822-.014 1.154-.066-.103-.078-.199-.16-.289-.245-.552-.526-.874-1.192-.874-1.71h.647c0 .289.205.796.673 1.24.194.184.427.353.702.486.451-.185.753-.437.957-.705.427-.559.497-1.262.5-1.83H3.468V4.34H5.45V3.29h.647V4.34zM4.235 11.943l-.732-.728-.731.728v2.85l.733.709h3.553v-1.417H4.24v-2.142h-.004z" fill="#7500FA"/>
    <path fill-rule="evenodd" clip-rule="evenodd" d="M8.17 7.167c-.723 0-1.309.58-1.309 1.298v7.792c0 .717.586 1.298 1.31 1.298h7.77c.723 0 1.31-.581 1.31-1.298V8.465c0-.717-.587-1.298-1.31-1.298h-7.77zm1.309 7.902h1.447l.285-.938h1.628l.285.938h1.447l-1.63-4.9H11.11l-1.63 4.9zm3.057-1.933-.492-1.617h-.038l-.492 1.617h1.022z" fill="#7500FA"/>
</svg>
