<svg width="24" height="24" viewBox="0 0 24 24" fill="none" xmlns="http://www.w3.org/2000/svg">
    <path d="M2.5 6.5a4 4 0 1 1 8 0 4 4 0 0 1-8 0zM21.5 6.5c0-1.886 0-2.828-.586-3.414C20.328 2.5 19.386 2.5 17.5 2.5c-1.886 0-2.828 0-3.414.586-.586.586-.586 1.528-.586 3.414 0 1.886 0 2.828.586 3.414.586.586 1.528.586 3.414.586 1.886 0 2.828 0 3.414-.586.586-.586.586-1.528.586-3.414zM10.5 17.5c0-1.886 0-2.828-.586-3.414C9.328 13.5 8.386 13.5 6.5 13.5c-1.886 0-2.828 0-3.414.586-.586.586-.586 1.528-.586 3.414 0 1.886 0 2.828.586 3.414.586.586 1.528.586 3.414.586 1.886 0 2.828 0 3.414-.586.586-.586.586-1.528.586-3.414zM18.088 21.573a1 1 0 0 1-1.176 0l-3.104-2.255a1 1 0 0 1-.363-1.118l1.185-3.65a1 1 0 0 1 .951-.69h3.838a1 1 0 0 1 .95.69l1.186 3.65a1 1 0 0 1-.363 1.118l-3.104 2.255z" stroke="#F2B705" stroke-width="1.5"/>
</svg>
