<svg width="46" height="40" viewBox="0 0 46 40" fill="none" xmlns="http://www.w3.org/2000/svg">
    <rect width="46" height="40" rx="6" fill="#7500FA"/>
    <path d="M9.552 16.93v4.56c0 .957-.66 1.646-1.729 1.65-1.074-.004-1.743-.693-1.738-1.65v-4.56H5.011v4.648c-.005 1.485 1.108 2.54 2.812 2.54 1.69 0 2.808-1.055 2.803-2.54V16.93H9.552zm1.931 9.062h1.045V23.17h.059c.19.347.571.932 1.533.937 1.284-.005 2.217-1.035 2.217-2.744 0-1.728-.942-2.734-2.227-2.734-.981 0-1.337.596-1.523.928h-.088v-.86h-1.016v7.295zm1.026-4.648c0-1.104.478-1.831 1.377-1.826.932-.005 1.396.78 1.396 1.826 0 1.064-.478 1.87-1.396 1.875-.889-.005-1.377-.762-1.377-1.875zm6.59 4.756c1.367 0 2.397-.62 2.392-1.983v-5.42h-1.015v.86h-.069c-.195-.332-.556-.928-1.543-.928-1.274 0-2.226.972-2.226 2.666s.966 2.627 2.216 2.627c.977 0 1.358-.547 1.544-.889h.068v1.045c-.005.825-.527 1.187-1.358 1.182-.688.005-1.157-.24-1.26-.742h-1.064c.093.99.977 1.582 2.315 1.582zm-1.397-4.786c-.005-1.015.464-1.801 1.387-1.796.898-.005 1.387.722 1.387 1.796 0 1.094-.498 1.744-1.387 1.748-.913-.004-1.392-.707-1.387-1.748zM22.261 24h1.045v-3.232c0-.694.537-1.197 1.26-1.192.214-.005.458.04.546.059v-.996a4.171 4.171 0 0 0-.44-.02c-.62-.005-1.152.352-1.347.918h-.058v-.84H22.26V24zm2.83-1.494c-.005 1.035.781 1.611 1.787 1.611.879 0 1.367-.444 1.572-.84h.04V24h1.015v-3.525c-.005-1.539-1.235-1.846-2.08-1.846-1.255 0-2.075.635-2.168 1.514h1.035c.107-.391.478-.674 1.094-.674.708 0 1.079.346 1.074.947l.005.425c-.244.01-1.04.053-1.392.073-.957.068-1.987.38-1.982 1.592zm1.015.01c0-.523.43-.782 1.114-.83.249-.015 1.006-.069 1.245-.084l.005.484c0 .63-.508 1.196-1.358 1.201-.586-.005-1.006-.264-1.006-.771zm6.141 1.591c.967-.005 1.348-.59 1.543-.937h.078V24h1.016v-7.07h-1.045v2.627h-.049c-.19-.332-.547-.928-1.533-.928-1.275 0-2.227 1.006-2.227 2.734 0 1.71.938 2.74 2.217 2.744zm-1.152-2.763c-.005-1.045.464-1.831 1.386-1.826.899-.005 1.387.722 1.387 1.826 0 1.113-.498 1.87-1.387 1.875-.913-.005-1.391-.81-1.386-1.875zm6.931 2.763c1.167 0 1.983-.576 2.217-1.435h-1.055c-.175.322-.561.576-1.152.576-.869 0-1.465-.571-1.494-1.582h3.77v-.371c0-1.919-1.148-2.666-2.354-2.666-1.48 0-2.456 1.123-2.451 2.754-.005 1.645.957 2.724 2.52 2.724zm-1.48-3.222c.045-.747.587-1.402 1.422-1.397.796-.005 1.318.591 1.318 1.397h-2.74z" fill="#fff"/>
</svg>
