<svg width="48" height="48" viewBox="0 0 48 48" fill="none" xmlns="http://www.w3.org/2000/svg">
    <path d="M34 18.004c4.35.024 6.706.217 8.243 1.754C44 21.515 44 24.344 44 30v2c0 5.657 0 8.486-1.757 10.243C40.485 44 37.657 44 32 44H16c-5.657 0-8.485 0-10.243-1.757C4 40.486 4 37.657 4 32v-2c0-5.656 0-8.485 1.757-10.242C7.294 18.22 9.65 18.028 14 18.004" stroke="#056CF2" stroke-width="3" stroke-linecap="round"/>
    <path d="M24 30V4m0 0 6 7m-6-7-6 7" stroke="#056CF2" stroke-width="3" stroke-linecap="round" stroke-linejoin="round"/>
</svg>
