<svg width="18" height="18" viewBox="0 0 18 18" fill="none" xmlns="http://www.w3.org/2000/svg">
    <g stroke="#fff" stroke-width="1.5">
        <circle cx="9" cy="4.5" r="3"/>
        <path d="M13.5 6.75c1.243 0 2.25-.84 2.25-1.875C15.75 3.839 14.743 3 13.5 3M4.5 6.75c-1.243 0-2.25-.84-2.25-1.875C2.25 3.839 3.257 3 4.5 3" stroke-linecap="round"/>
        <ellipse cx="9" cy="12.75" rx="4.5" ry="3"/>
        <path d="M15 14.25c1.316-.289 2.25-1.02 2.25-1.875 0-.856-.934-1.586-2.25-1.875M3 14.25C1.684 13.961.75 13.23.75 12.375c0-.856.934-1.586 2.25-1.875" stroke-linecap="round"/>
    </g>
</svg>
